/* XPM */
static char * RevanStart_xpm[] = {
"33 33 120 2",
"  	c None",
". 	c #BEBEBE",
"+ 	c #CFCFCF",
"@ 	c #FBFBFB",
"# 	c #FFFFFF",
"$ 	c #F0F0F0",
"% 	c #E1E1E1",
"& 	c #DBDBDB",
"* 	c #D9D9D9",
"= 	c #D8D8D8",
"- 	c #D5D5D5",
"; 	c #CECECE",
"> 	c #BBBBBB",
", 	c #B5B5B5",
"' 	c #BDBDBD",
") 	c #DADADA",
"! 	c #F2F2F2",
"~ 	c #EFEFEF",
"{ 	c #E5E5E5",
"] 	c #DEDEDE",
"^ 	c #D2D2D2",
"/ 	c #C9C9C9",
"( 	c #B9B9B9",
"_ 	c #B1B1B1",
": 	c #ABABAB",
"< 	c #F5F5F5",
"[ 	c #FCFCFC",
"} 	c #D4D4D4",
"| 	c #C3C3C3",
"1 	c #BFBFBF",
"2 	c #C1C1C1",
"3 	c #BABABA",
"4 	c #A8A8A8",
"5 	c #999999",
"6 	c #A9A9A9",
"7 	c #BCBCBC",
"8 	c #ACACAC",
"9 	c #A5A5A5",
"0 	c #9C9C9C",
"a 	c #868686",
"b 	c #A3A3A3",
"c 	c #9B9B9B",
"d 	c #7B7B7B",
"e 	c #969696",
"f 	c #A1A1A1",
"g 	c #727272",
"h 	c #636363",
"i 	c #949494",
"j 	c #C2C2C2",
"k 	c #565656",
"l 	c #616161",
"m 	c #878787",
"n 	c #363636",
"o 	c #6A6A6A",
"p 	c #2D2D2D",
"q 	c #323232",
"r 	c #464646",
"s 	c #8F8F8F",
"t 	c #575757",
"u 	c #919191",
"v 	c #3F3F3F",
"w 	c #343434",
"x 	c #282828",
"y 	c #515151",
"z 	c #8A8A8A",
"A 	c #979797",
"B 	c #1F1F1F",
"C 	c #4B4B4B",
"D 	c #808080",
"E 	c #848484",
"F 	c #AAAAAA",
"G 	c #383838",
"H 	c #373737",
"I 	c #1C1C1C",
"J 	c #6E6E6E",
"K 	c #5B5B5B",
"L 	c #6C6C6C",
"M 	c #131313",
"N 	c #656565",
"O 	c #929292",
"P 	c #535353",
"Q 	c #5D5D5D",
"R 	c #070707",
"S 	c #242424",
"T 	c #3C3C3C",
"U 	c #858585",
"V 	c #000000",
"W 	c #505050",
"X 	c #494949",
"Y 	c #898989",
"Z 	c #ADADAD",
"` 	c #C5C5C5",
" .	c #454545",
"..	c #3E3E3E",
"+.	c #FEFEFE",
"@.	c #F9F9F9",
"#.	c #7A7A7A",
"$.	c #4A4A4A",
"%.	c #FDFDFD",
"&.	c #EEEEEE",
"*.	c #B8B8B8",
"=.	c #8C8C8C",
"-.	c #262626",
";.	c #A4A4A4",
">.	c #191919",
",.	c #020202",
"'.	c #141414",
").	c #424242",
"!.	c #222222",
"~.	c #1D1D1D",
"{.	c #646464",
"].	c #989898",
"^.	c #E0E0E0",
"/.	c #5E5E5E",
"(.	c #9A9A9A",
"_.	c #CDCDCD",
":.	c #181818",
"<.	c #525252",
"[.	c #2F2F2F",
"}.	c #212121",
". . . . . . . . . . . . . . . . . . . . . . . . . . . . . . . . . ",
". . . . . . . . . . + @ # $ % & * = - ; > , ' . . . . . . . . . . ",
". . . . . . . . ) # # ! ~ { ] ) * = ^ / > ( _ : > . . . . . . . . ",
". . . . . . . # # @ < [ # ! } | . . 1 2 3 > _ 4 5 6 . . . . . . . ",
". . . . . + # # # # # } . . . . . . . . . 7 8 9 0 a b ' . . . . . ",
". . . . + # # # # ] . . . . . . . . . . . . . 3 c a d e ' . . . . ",
". . . . # # # # / . . . . . . . . . . . . . . . ' f g h i . . . . ",
". . . # # # # j . . . . . . . . . . . . . . . . . ' c k l 6 . . . ",
". . ) # # # / . . . . . . . . . . . . . . . . . . . ' m n o > . . ",
". . # @ # ] . . . . p q r s , . . . . . . . . . . . . 3 t p u . . ",
". + # < # . . . . . v w x w y z , . . . . . . . . . . . A B C ' . ",
". @ ! [ } . . . . . D E F k G q y z , . . . . . . . . . 7 H I 9 . ",
". # ~ # . . . . . . ( f J K E y q q y z , . . . . . . . . L M N . ",
". $ { ! . . . . . . . ( O P Q . z y q q y z , . . . . . . b R S . ",
". % ] } . . . . . . . . , y q z . , z y q T U , . . . . . ( V R . ",
". & ) | . . . . . . . . . W V X . . . , z Y Z ` . . . . . ' V V . ",
". * * . . . . . . . . . .  .V ... . . ~ # # +.@.. . . . . ' V V . ",
". = = . . . . . . . . . #.V V $.. ~ # # %.# # &.. . . . . *.V V . ",
". - ^ 1 . . . . . . . =.-.V V . # # %.%.# # ~ . . . . . . ;.V V . ",
". ; / 2 . . . . . . =.T V >.. # %.%.# # ~ . . . . . . . . g V ,.. ",
". > > 3 . . . . . . >.'.).* @ %.# # ~ . . . . . . . . . . !.V ~.. ",
". , ( > 7 . . . . . {.].^.< # # ~ . . . . . . . . . . . ;.V V /.. ",
". ' _ _ 8 . . . . . (._.[ @.~ . . . . . . . . . . . . . v V V : . ",
". . : 4 9 3 . . . . . . . . . . . . . . . . . . . . . e V V w . . ",
". . > 5 0 c ' . . . . . . . . . . . . . . . . . . . _ :.V V 0 . . ",
". . . 6 a a f ' . . . . . . . . . . . . . . . . . *.n V V <.. . . ",
". . . . b d g c ' . . . . . . . . . . . . . . . _ n V V [.. . . . ",
". . . . ' e h k m 3 . . . . . . . . . . . . . e :.V V }.: . . . . ",
". . . . . ' i l n t A 7 . . . . . . . . . ;.v V V V [.: . . . . . ",
". . . . . . . 6 o p B H L b ( ' ' *.;.g !.V V V V <.. . . . . . . ",
". . . . . . . . > u C I M R V V V V V V V V V w 0 . . . . . . . . ",
". . . . . . . . . . ' 9 N S R V V V V ,.~./.: . . . . . . . . . . ",
". . . . . . . . . . . . . . . . . . . . . . . . . . . . . . . . . "};
