/* XPM */
static char * RevanLoad_xpm[] = {
"33 33 119 2",
"  	c None",
". 	c #BDBDBD",
"+ 	c #C2C2C2",
"@ 	c #F9F9F9",
"# 	c #FFFFFF",
"$ 	c #ECECEC",
"% 	c #DBDBDB",
"& 	c #D8D8D8",
"* 	c #D6D6D6",
"= 	c #CCCCCC",
"- 	c #ADADAD",
"; 	c #AEAEAE",
"> 	c #BCBCBC",
", 	c #CDCDCD",
"' 	c #EEEEEE",
") 	c #F2F2F2",
"! 	c #E4E4E4",
"~ 	c #DADADA",
"{ 	c #D5D5D5",
"] 	c #C8C8C8",
"^ 	c #B1B1B1",
"/ 	c #BBBBBB",
"( 	c #AFAFAF",
"_ 	c #A2A2A2",
": 	c #F8F8F8",
"< 	c #F3F3F3",
"[ 	c #EAEAEA",
"} 	c #C6C6C6",
"| 	c #B9B9B9",
"1 	c #ABABAB",
"2 	c #A7A7A7",
"3 	c #A1A1A1",
"4 	c #A3A3A3",
"5 	c #C7C7C7",
"6 	c #A4A4A4",
"7 	c #A5A5A5",
"8 	c #7A7A7A",
"9 	c #9D9D9D",
"0 	c #D2D2D2",
"a 	c #7C7C7C",
"b 	c #717171",
"c 	c #989898",
"d 	c #BFBFBF",
"e 	c #6E6E6E",
"f 	c #696969",
"g 	c #979797",
"h 	c #545454",
"i 	c #3B3B3B",
"j 	c #5E5E5E",
"k 	c #999999",
"l 	c #BABABA",
"m 	c #9A9A9A",
"n 	c #676767",
"o 	c #2E2E2E",
"p 	c #000000",
"q 	c #1A1A1A",
"r 	c #5C5C5C",
"s 	c #8D8D8D",
"t 	c #282828",
"u 	c #606060",
"v 	c #6F6F6F",
"w 	c #202020",
"x 	c #858585",
"y 	c #C0C0C0",
"z 	c #575757",
"A 	c #949494",
"B 	c #151515",
"C 	c #363636",
"D 	c #515151",
"E 	c #7B7B7B",
"F 	c #E6E6E6",
"G 	c #E5E5E5",
"H 	c #1C1C1C",
"I 	c #4B4B4B",
"J 	c #636363",
"K 	c #777777",
"L 	c #313131",
"M 	c #161616",
"N 	c #A9A9A9",
"O 	c #838383",
"P 	c #2D2D2D",
"Q 	c #2B2B2B",
"R 	c #B6B6B6",
"S 	c #191919",
"T 	c #6D6D6D",
"U 	c #0F0F0F",
"V 	c #6C6C6C",
"W 	c #070707",
"X 	c #1B1B1B",
"Y 	c #F4F4F4",
"Z 	c #7D7D7D",
"` 	c #616161",
" .	c #666666",
"..	c #BEBEBE",
"+.	c #C1C1C1",
"@.	c #DDDDDD",
"#.	c #888888",
"$.	c #828282",
"%.	c #D0D0D0",
"&.	c #8C8C8C",
"*.	c #030303",
"=.	c #B4B4B4",
"-.	c #707070",
";.	c #AAAAAA",
">.	c #DCDCDC",
",.	c #7F7F7F",
"'.	c #969696",
").	c #484848",
"!.	c #101010",
"~.	c #494949",
"{.	c #0D0D0D",
"].	c #444444",
"^.	c #E7E7E7",
"/.	c #DEDEDE",
"(.	c #B2B2B2",
"_.	c #1D1D1D",
":.	c #373737",
"<.	c #B7B7B7",
"[.	c #2F2F2F",
". . . . . . . . . . . . . . . . . . . . . . . . . . . . . . . . . ",
". . . . . . . . . . + @ # $ % & & & * = - ; > . . . . . . . . . . ",
". . . . . . . . , # # ' ) ! ~ & & & { ] ^ / ( _ > . . . . . . . . ",
". . . . . . . # # : < : # [ } . . > . | 1 . ( 2 3 4 . . . . . . . ",
". . . . . + # # : # # 5 . . . . . . . . . > 4 6 7 8 9 > . . . . . ",
". . . . + # # # # 0 . . . . . . . . . . . . . / 9 a b c > . . . . ",
". . . . # # # # d . . . . . . . . . . . . . . . > 9 e f g . . . . ",
". . . # # # # . . . . . . . c h i j k l . . . . . > m j n 4 . . . ",
". . , # : # d . . . . . . c o p p q r m l . . . . . > s t u > . . ",
". . # : # 0 . . . . . . . v p p w r x 3 y . . . . . . / z t A . . ",
". + # < # . . . . . . . . B C D E # F G | . . . . . . . k H I > . ",
". @ ' : 5 . . . . . . . . J 4 K D # # # @ . . . . . . . > L M N . ",
". # ) # . . O M p p p D k k ! D p & # ! # P p p p Q E R . K S f . ",
". $ ! [ . . M p p D k ! ! . . p p & & . . T T P p U V 4 . ^ W X . ",
". % ~ } . . p p J Y # # # . . p p & & . . Z J `  .- ..+.. > p p . ",
". & & . . . p D Y @.#.u m l . p p & & . c o p p | * # & . > p p . ",
". & & . . . p k # #.. $.K m l p p & & c o p p . # 2 # & . . p p . ",
". & & > . . D ! # u $.. $.K m p p & %.o p p . # # 2 ! # . > p p . ",
". * { . . . k ! # m K $.. $.&.*.p & / p p . # # # =.! # . =.p p . ",
". = ] | . . . . . l m K $.. -.*.p ;.` p . # # # >.. . . . ,.p p . ",
". - ^ 1 . . . . . . l m &.-.'.).P k  .| # # # >.. . . . . q p !.. ",
". ; / . > . . . . . . '.~.{.].. . . . ^./.^.& . . . . . (.p p j . ",
". > ( ( 4 . . . . . . _.p p _.. . . . 3 n n 3 . . . . . :.p p <.. ",
". . _ 2 6 / . . . . . n ` l %.& & & & G # # Y . . . . 6 p p [.. . ",
". . > 3 7 9 > . . . . k ;.& & & & & & & & # # . . . l w p p 1 . . ",
". . . 4 8 a 9 > . . . . . . . . . . . . . . . . . > L p p ].. . . ",
". . . . 9 b e m > . . . . . . . . . . . . . . . l L p p P . . . . ",
". . . . > c f j s / . . . . . . . . . . . . . 6 w p p t <.. . . . ",
". . . . . > g n t z k > . . . . . . . . . (.:.p p p P <.. . . . . ",
". . . . . . . 4 u t H L K ^ > > . > =.,.q p p p p ].. . . . . . . ",
". . . . . . . . > A I M S W p p p p p p p p p [.1 . . . . . . . . ",
". . . . . . . . . . > N f X p p p p p p !.j <.. . . . . . . . . . ",
". . . . . . . . . . . . . . . . . . . . . . . . . . . . . . . . . "};
