/* XPM */
static char * MimrecExit_xpm[] = {
"32 32 21 1",
" 	c None",
".	c #BFBFBF",
"+	c #8E8DB8",
"@	c #6663B2",
"#	c #4743AD",
"$	c #322DAA",
"%	c #2823A8",
"&	c #B7B6BE",
"*	c #706EB3",
"=	c #2621A8",
"-	c #8583B6",
";	c #3B36B9",
">	c #5A55D2",
",	c #716DE5",
"'	c #817DF2",
")	c #8985F8",
"!	c #433EBF",
"~	c #8A86F9",
"{	c #5C59B0",
"]	c #625DD8",
"^	c #2C27AD",
"................................",
"...........+@#$%%$#@+...........",
"........&*$==========$*&........",
".......-$==;>,'))',>;==$-.......",
"......@==!,~~~~~~~~~~,!==@......",
".....{==]~~~~~~~~~~~~~~]=={.....",
"....@=^,~~~~~~~~~~~~~~~~,^=@....",
"...-==,~~~~~~~~~~~~~~~~~~,==-...",
"..&$=]~~~~~~~~~~~~~~~~~~~~]=$&..",
"..*=!~~~~%%~~~~~~~~~~%%~~~~!=*..",
"..$=,~~~~%%%~~~~~~~~%%%~~~~,=$..",
".+=;~~~~~~%%%~~~~~~%%%~~~~~~;=+.",
".@=>~~~~~~~%%%~~~~%%%~~~~~~~>=@.",
".#=,~~~~~~~~%%%~~%%%~~~~~~~~,=#.",
".$='~~~~~~~~~%%%%%%~~~~~~~~~'=$.",
".%=)~~~~~~~~~~%%%%~~~~~~~~~~)=%.",
".%=)~~~~~~~~~~%%%%~~~~~~~~~~)=%.",
".$='~~~~~~~~~%%%%%%~~~~~~~~~'=$.",
".#=,~~~~~~~~%%%~~%%%~~~~~~~~,=#.",
".@=>~~~~~~~%%%~~~~%%%~~~~~~~>=@.",
".+=;~~~~~~%%%~~~~~~%%%~~~~~~;=+.",
"..$=,~~~~%%%~~~~~~~~%%%~~~~,=$..",
"..*=!~~~~%%~~~~~~~~~~%%~~~~!=*..",
"..&$=]~~~~~~~~~~~~~~~~~~~~]=$&..",
"...-==,~~~~~~~~~~~~~~~~~~,==-...",
"....@=^,~~~~~~~~~~~~~~~~,^=@....",
".....{==]~~~~~~~~~~~~~~]=={.....",
"......@==!,~~~~~~~~~~,!==@......",
".......-$==;>,'))',>;==$-.......",
"........&*$==========$*&........",
"...........+@#$%%$#@+...........",
"................................"};
