/* XPM */
static char * MimrecLoad_xpm[] = {
"32 32 18 1",
" 	c None",
".	c #BFBFBF",
"+	c #8E8DB8",
"@	c #6663B2",
"#	c #2823A8",
"$	c #B7B6BE",
"%	c #706EB3",
"&	c #8583B6",
"*	c #3B36B9",
"=	c #5A55D2",
"-	c #716DE5",
";	c #817DF2",
">	c #8985F8",
",	c #433EBF",
"'	c #8A86F9",
")	c #5A6C7C",
"!	c #625DD8",
"~	c #2C27AD",
"................................",
"...........+@######@+...........",
"........$%############%$........",
".......&###*=-;>>;-=*###&.......",
"......@##,-''''''''''-,##@......",
".....)##!''''''''''''''!##).....",
"....@#~-''''''''''''''''-~#@....",
"...&##-''''''''##''''''''-##&...",
"..$##!''''''''####''''''''!##$..",
"..%#,''''''''######'''''''',#%..",
"..##-''''''''#'##'#''''''''-##..",
".+#*'''''''''''##'''''''''''*#+.",
".@#=''#####''''##''''#####''=#@.",
".##-''###''''''##''''''###''-##.",
".##;''####'''''##'''''####'';##.",
".##>''#'###''''##''''###'#''>##.",
".##>''#''###'''##'''###''#''>##.",
".##;''''''###''##''###'''''';##.",
".##-'''''''###'##'###'''''''-##.",
".@#=''''''''########''''''''=#@.",
".+#*'''''''''######'''''''''*#+.",
"..##-'''''''########'''''''-##..",
"..%#,''''''##########'''''',#%..",
"..$##!''''''''''''''''''''!##$..",
"...&##-''''''''''''''''''-##&...",
"....@#~-''''''''''''''''-~#@....",
".....)##!''''''''''''''!##).....",
"......@##,-''''''''''-,##@......",
".......&###*=-;>>;-=*###&.......",
"........$%############%$........",
"...........+@######@+...........",
"................................"};
