/* XPM */
static char * Exit2_xpm[] = {
"32 32 191 2",
"  	c None",
". 	c #004B93",
"+ 	c #004C93",
"@ 	c #014C93",
"# 	c #034D93",
"$ 	c #044D93",
"% 	c #044E93",
"& 	c #014C94",
"* 	c #024C94",
"= 	c #024D94",
"- 	c #034D94",
"; 	c #034E95",
"> 	c #044F95",
", 	c #054F95",
"' 	c #064F94",
") 	c #074F94",
"! 	c #054F96",
"~ 	c #075094",
"{ 	c #055096",
"] 	c #065096",
"^ 	c #065196",
"/ 	c #075197",
"( 	c #085094",
"_ 	c #095194",
": 	c #0A5295",
"< 	c #085197",
"[ 	c #085397",
"} 	c #0E5496",
"| 	c #0F5496",
"1 	c #085298",
"2 	c #085398",
"3 	c #095398",
"4 	c #0A5398",
"5 	c #0A5499",
"6 	c #0B5499",
"7 	c #0B559A",
"8 	c #0C559A",
"9 	c #0C569A",
"0 	c #0D569B",
"a 	c #0D579B",
"b 	c #0E569B",
"c 	c #0E579B",
"d 	c #0F579C",
"e 	c #0F589B",
"f 	c #0F589C",
"g 	c #105596",
"h 	c #135797",
"i 	c #145897",
"j 	c #155897",
"k 	c #155998",
"l 	c #165998",
"m 	c #175998",
"n 	c #175A98",
"o 	c #125B9E",
"p 	c #135C9F",
"q 	c #145C9F",
"r 	c #185A98",
"s 	c #1C5D99",
"t 	c #1D5D9A",
"u 	c #205F9A",
"v 	c #21609A",
"w 	c #22609B",
"x 	c #23609B",
"y 	c #23619B",
"z 	c #26639C",
"A 	c #29659C",
"B 	c #155CA0",
"C 	c #175EA1",
"D 	c #1860A2",
"E 	c #1A61A3",
"F 	c #1D64A5",
"G 	c #1E64A5",
"H 	c #1E65A5",
"I 	c #2066A6",
"J 	c #2167A7",
"K 	c #2267A7",
"L 	c #2368A8",
"M 	c #2469A9",
"N 	c #246AA9",
"O 	c #2A6EAC",
"P 	c #2A6EAD",
"Q 	c #2C6FAD",
"R 	c #2C70AE",
"S 	c #2E72AF",
"T 	c #3073B0",
"U 	c #3376B2",
"V 	c #3577B3",
"W 	c #3779B4",
"X 	c #397BB5",
"Y 	c #3A7BB6",
"Z 	c #3B7DB7",
"` 	c #3C7DB7",
" .	c #3E7EB8",
"..	c #5D84A9",
"+.	c #5D85A9",
"@.	c #5E85A9",
"#.	c #5F85A9",
"$.	c #4484BC",
"%.	c #4585BD",
"&.	c #4685BD",
"*.	c #4786BE",
"=.	c #4787BE",
"-.	c #6086A9",
";.	c #6187AA",
">.	c #668AAB",
",.	c #6389AD",
"'.	c #638AAD",
").	c #658BAE",
"!.	c #668CAE",
"~.	c #678CAE",
"{.	c #688BAB",
"].	c #698BAC",
"^.	c #698CAC",
"/.	c #6A8CAC",
"(.	c #7291AE",
"_.	c #7796B3",
":.	c #7896B3",
"<.	c #7A98B3",
"[.	c #7B98B4",
"}.	c #7C99B4",
"|.	c #4B8AC0",
"1.	c #4C8AC1",
"2.	c #4C8BC1",
"3.	c #4D8CC2",
"4.	c #508EC3",
"5.	c #518EC4",
"6.	c #528FC4",
"7.	c #5290C5",
"8.	c #5390C5",
"9.	c #5492C7",
"0.	c #5592C7",
"a.	c #5693C7",
"b.	c #5895C9",
"c.	c #5995C9",
"d.	c #5996C9",
"e.	c #5C98CB",
"f.	c #5D98CB",
"g.	c #5D99CC",
"h.	c #5E99CC",
"i.	c #609BCD",
"j.	c #609CCE",
"k.	c #649ED0",
"l.	c #659FD0",
"m.	c #659FD1",
"n.	c #65A0D1",
"o.	c #67A1D2",
"p.	c #68A2D2",
"q.	c #6AA3D4",
"r.	c #6AA4D4",
"s.	c #6BA4D4",
"t.	c #6CA5D5",
"u.	c #6DA6D6",
"v.	c #6EA7D6",
"w.	c #6FA7D7",
"x.	c #6FA8D7",
"y.	c #70A8D7",
"z.	c #70A9D8",
"A.	c #71AAD8",
"B.	c #72AAD9",
"C.	c #73ABD9",
"D.	c #75ACDA",
"E.	c #76AEDB",
"F.	c #77AEDC",
"G.	c #78AFDC",
"H.	c #79B0DD",
"I.	c #8FA3B5",
"J.	c #8AA1B8",
"K.	c #8AA2B8",
"L.	c #90A4B5",
"M.	c #98A8B7",
"N.	c #93A7BA",
"O.	c #94A8BA",
"P.	c #95A8BB",
"Q.	c #98AABB",
"R.	c #A1AEB9",
"S.	c #ACB5BC",
"T.	c #B4BABE",
"U.	c #B6BBBE",
"V.	c #B9BCBF",
"W.	c #B9BDBF",
"X.	c #BABDBF",
"Y.	c #BABEBF",
"Z.	c #BBBEBF",
"`.	c #B1BAC2",
" +	c #B2BAC2",
".+	c #BBBEC0",
"++	c #B8BEC4",
"@+	c #BAC0C5",
"#+	c #C3C3C2",
"$+	c #C9C9C9",
"%+	c #CFCFCE",
"                        `.O.}.'.).<.Q. +                        ",
"                  .+-.s n } ) . . ) } m A ..V.                  ",
"                /.k $ . . { 2 6 7 5 / + . $ l >.X.              ",
"            X.u ' . , c S 0.p.z.B.r.j.W D 5 . ) s U.            ",
"        T.M.h . - c e.H.H.H.H.H.H.H.H.H.H.o.F 8 . i Z.T.        ",
"        Y.: . 1 2.H.H.H.H.H.H.H.H.H.H.H.H.H.H.4.9 . _ M.        ",
"      R.s . p 9.H.H.H.H.H.H.H.H.H.H.H.H.H.H.H.H.H.c . x L.      ",
"      y . ] %.H.H.H.H.H.H.H.H.H.H.H.H.H.H.H.H.H.H.H.f . r       ",
"    ;.( * J H.H.H.H.H.L H.H.H.H.H.H.H.H.L H.H.H.H.H.8.c ( @.    ",
"  S.s . c A.H.H.H.H.1.- G H.H.H.H.H.H.T / ` H.H.H.H.H.S + l .+  ",
"  (.# ;  .H.H.H.H.1.@ . * G H.H.H.H.T { . . ` H.H.H.H.H.3 # ].  ",
"  z . 5 D.H.H.H.K . . . . * G H.H.T { . . . . B z.H.H.H.O . v   ",
"@+i . I H.H.H.H.w.8 . . . . * G T { . . . . 8 g.C.H.H.H.b.; n `.",
"P.} . Z H.H.H.H.H.y.8 . . . . . @ . . . . 8 g.H.H.H.H.H.z.5 g K.",
":.' = 8.H.H.H.H.H.H.y.8 . . . . . . . . 8 g.H.H.H.H.H.H.H.6 ' :.",
"'.. / h.H.H.H.H.H.H.H.y.8 . . . . . . 8 g.H.H.H.H.H.H.H.H.c . ~.",
"'.. / i.H.H.H.H.H.H.H.H.Q . . . . . . C H.H.H.H.H.H.H.H.H.f . '.",
"[.' = a.H.H.H.H.H.H.H.T { . . . . . . * G H.H.H.H.H.H.H.F.7 ' <.",
"N.| . $.H.H.H.H.H.H.T { . . . . . . . . * G H.H.H.H.H.H.s.8 } Q.",
"`.n . H H.H.H.H.H.T { . . . . 4 3 . . . . * G H.H.H.H.H.d.; m  +",
"  s . 5 E.H.H.H.T { . . . . 8 g.y.8 . . . . & P H.H.H.H.M . A   ",
"  #.% ; &.H.H.H.5.C . . . 8 g.H.H.y.8 . . . < |.H.H.H.u.0 % ..  ",
"  X.l . 7 H.H.H.H.y.C . 8 g.H.H.H.H.y.8 . b p.H.H.H.H.N + n V.  ",
"    ^.) & X H.H.H.H.V 6 C.H.H.H.H.H.H.F.d f.H.H.H.H.7.e ) >.    ",
"      u . > n.A.H.H.H.g.H.H.H.H.H.H.H.H.g.H.H.H.H.t.f . t X.    ",
"      W.h . c =.H.H.H.H.H.H.H.H.H.H.H.H.H.H.H.H.D.o . j U.      ",
"        M.: . 5 O G.H.H.H.H.H.H.H.H.H.H.H.H.H.v.8 . : Y.        ",
"        T.Z.s . ! c 3.H.H.H.H.H.H.H.H.H.H.z.R ^ . y M.T.        ",
"            R.w ~ . ] a U 6.m.l.B.x.k.*.q 1 . ~ r I.            ",
"                ;.s # . . { 3 [ 7 3 / + . # l +.                ",
"                  S.(.z i } ) . . ) g n u {.X.                  ",
"                        @+P.:.,.!._.J.`.                        "};
