/* XPM */
static char * Load2_xpm[] = {
"32 32 217 2",
"  	c None",
". 	c #004B93",
"+ 	c #004C93",
"@ 	c #014C93",
"# 	c #024C93",
"$ 	c #034E93",
"% 	c #074F93",
"& 	c #014C94",
"* 	c #014D94",
"= 	c #024D94",
"- 	c #034D94",
"; 	c #034F95",
"> 	c #044E95",
", 	c #044F95",
"' 	c #044F96",
") 	c #054F96",
"! 	c #055096",
"~ 	c #065096",
"{ 	c #065197",
"] 	c #075197",
"^ 	c #075297",
"/ 	c #085094",
"( 	c #085297",
"_ 	c #0D5396",
": 	c #0E5496",
"< 	c #0F5496",
"[ 	c #0F5596",
"} 	c #085298",
"| 	c #095298",
"1 	c #085398",
"2 	c #095398",
"3 	c #0A5499",
"4 	c #0B5499",
"5 	c #0A5599",
"6 	c #0B5599",
"7 	c #0B559A",
"8 	c #0C559A",
"9 	c #0C569A",
"0 	c #0D569A",
"a 	c #0D569B",
"b 	c #0D579B",
"c 	c #0E579B",
"d 	c #0E579C",
"e 	c #0E589B",
"f 	c #0F589C",
"g 	c #0F599C",
"h 	c #115696",
"i 	c #125697",
"j 	c #125797",
"k 	c #135797",
"l 	c #145897",
"m 	c #155897",
"n 	c #155997",
"o 	c #155998",
"p 	c #165998",
"q 	c #175998",
"r 	c #175A98",
"s 	c #10599C",
"t 	c #11599D",
"u 	c #115A9D",
"v 	c #125A9E",
"w 	c #125B9E",
"x 	c #135B9E",
"y 	c #135C9F",
"z 	c #145C9F",
"A 	c #155D9F",
"B 	c #185998",
"C 	c #185A98",
"D 	c #195A98",
"E 	c #1B5C99",
"F 	c #1C5C99",
"G 	c #21609B",
"H 	c #2D679D",
"I 	c #366D9F",
"J 	c #155DA0",
"K 	c #165EA0",
"L 	c #175FA0",
"M 	c #175FA1",
"N 	c #1860A1",
"O 	c #1860A2",
"P 	c #1A61A3",
"Q 	c #1B62A4",
"R 	c #1C63A4",
"S 	c #1D63A4",
"T 	c #1D64A5",
"U 	c #1E64A5",
"V 	c #1E65A5",
"W 	c #1F65A6",
"X 	c #2066A6",
"Y 	c #2167A7",
"Z 	c #2268A7",
"` 	c #2369A8",
" .	c #266BAA",
"..	c #266CAA",
"+.	c #2B6FAD",
"@.	c #356DA1",
"#.	c #376DA0",
"$.	c #366DA1",
"%.	c #376EA1",
"&.	c #386EA0",
"*.	c #386EA2",
"=.	c #2B70AD",
"-.	c #2C70AE",
";.	c #2E71AF",
">.	c #2E72AF",
",.	c #3D71A1",
"'.	c #3E71A1",
").	c #3E72A1",
"!.	c #3073B0",
"~.	c #3174B0",
"{.	c #3175B1",
"].	c #3275B1",
"^.	c #3376B2",
"/.	c #3578B3",
"(.	c #3679B4",
"_.	c #377AB4",
":.	c #3A7BB6",
"<.	c #3B7DB7",
"[.	c #3D7EB8",
"}.	c #3F7FB9",
"|.	c #4173A2",
"1.	c #4677A5",
"2.	c #4777A6",
"3.	c #4877A4",
"4.	c #4878A6",
"5.	c #4879A6",
"6.	c #4B7AA6",
"7.	c #4C7BA7",
"8.	c #4383BB",
"9.	c #4484BD",
"0.	c #4585BD",
"a.	c #4686BE",
"b.	c #4988BF",
"c.	c #6287AA",
"d.	c #6288AA",
"e.	c #6288AD",
"f.	c #6289AD",
"g.	c #688CAF",
"h.	c #6B8EAF",
"i.	c #6E8FAD",
"j.	c #6F8FAD",
"k.	c #7292AE",
"l.	c #7392AE",
"m.	c #6B8FB0",
"n.	c #7E98B0",
"o.	c #7F99B1",
"p.	c #7F9AB1",
"q.	c #4B8AC0",
"r.	c #4B8AC1",
"s.	c #4C8BC1",
"t.	c #4D8CC2",
"u.	c #4E8DC3",
"v.	c #4F8DC3",
"w.	c #4F8EC3",
"x.	c #508EC4",
"y.	c #528FC5",
"z.	c #5290C5",
"A.	c #5491C6",
"B.	c #5592C6",
"C.	c #5895C8",
"D.	c #5995C9",
"E.	c #5996C9",
"F.	c #5A97CA",
"G.	c #5B97CA",
"H.	c #5B97CB",
"I.	c #5C98CB",
"J.	c #5C98CC",
"K.	c #5F9ACC",
"L.	c #5F9ACD",
"M.	c #5F9BCD",
"N.	c #609BCD",
"O.	c #609BCE",
"P.	c #619CCE",
"Q.	c #629DCF",
"R.	c #639ECF",
"S.	c #649ED0",
"T.	c #649FD0",
"U.	c #66A0D1",
"V.	c #67A1D2",
"W.	c #68A2D2",
"X.	c #68A2D3",
"Y.	c #6BA4D4",
"Z.	c #6CA5D5",
"`.	c #6FA8D7",
" +	c #70A8D7",
".+	c #70A9D8",
"++	c #73ABD9",
"@+	c #75ACDA",
"#+	c #76ADDB",
"$+	c #76AEDB",
"%+	c #77AEDC",
"&+	c #79B0DD",
"*+	c #89A0B7",
"=+	c #99A9B7",
"-+	c #9BAAB7",
";+	c #90A5B9",
">+	c #91A6BA",
",+	c #95A9BB",
"'+	c #96A9BB",
")+	c #9CABB8",
"!+	c #9DACB9",
"~+	c #9FADB9",
"{+	c #A1AEB9",
"]+	c #A2AFBA",
"^+	c #A5B0BA",
"/+	c #A6B1BB",
"(+	c #B2B8BD",
"_+	c #B3B9BE",
":+	c #B7BCBF",
"<+	c #B6BDC4",
"[+	c #C3C3C2",
"}+	c #C1C4C6",
"|+	c #C1C4C7",
"1+	c #C3C5C7",
"2+	c #C5C6C7",
"3+	c #C9C9C9",
"4+	c #CFCFCE",
"                      <+>+m.7.$.$.2.g.,+1+                      ",
"                  ]+I E < . . . . . . : p H !+                  ",
"                |.h . . = 4 5 a c 7 8 ~ . . i 3.:+              ",
"            )+< . . 1 R b.W.$+&+&+%+Z.A.].7 = . k d.            ",
"        ^+l._ . 2 -.`.&+&+&+&+&+&+&+&+&+&+&+<.c . C n.          ",
"        =+$ . c B.&+&+&+&+&+&+M.{.&+&+&+&+&+&+Z.w = % &.        ",
"      o.i . A S.&+&+&+&+&+&+&+W 8  +&+&+&+&+&+&+&+z - m j.      ",
"    /+C . b O.&+&+&+&+&+&+&+s.] . P &+&+&+&+&+&+&+&+O . l _+    ",
"    G . ! D.&+&+&+&+&+&+&+z.! . . ] N &+&+&+&+&+&+&+&+f . &.    ",
"  ~+h . y &+&+&+&+&+&+&+&+E.` ] . K q.&+&+&+&+&+&+&+&+a., h ]+  ",
"  ).. } J.&+&+&+&+&+&+&+&+&+&+] . &+&+&+&+&+&+&+&+&+&+&+z . '.  ",
"2+o . v &+&+&+&+&+&+&+&+&+&+&+, . &+&+&+&+&+&+&+&+&+&+&+9.+ q |+",
"'+: . -.&+&+&+&+&+&+&+&+&+=.8 , = ! R &+&+&+&+&+&+&+&+&+Z.} < >+",
"g.. ) H.&+&+&+&+F.t.&+&+0.2 . . . . . w &+&+&+t.&+&+&+&+&+9 . f.",
"1.. | V.&+&+&+v.8 L &+&+^ . . . . . . # U &+&+; +.&+&+&+&+J . 5.",
"$.. 3 `.&+G.Y ( . ) ! = + . . . . . . . @ ! ! & @ 9 C.&+&+S . *.",
"*+. 3 .+&+_.9 + . . . . . . . . . . . . + . . . . 3 !.&+&+U . $.",
"6.. } W.&+&+%+ .! Q &+&+, . . . . . . . 3 &+&+3 e K.&+&+&+J . 1.",
"h.. ' I.&+&+&+&+w.P.&+&+Z . . . . . . } &+&+Y.+.&+&+&+&+&+9 . g.",
";+[ . /.&+&+&+&+&+&+&+&+&+V , . . . A A.&+&+&+&+&+&+&+&+X.2 : ,+",
"<+F . s &+&+&+&+&+&+&+&+&+&+~.* . g L.&+&+&+&+&+&+&+&+&+[.+ p 1+",
"  I . } I.&+&+&+&+&+&+&+&+&+&+] . &+&+&+&+&+&+&+&+&+&+&+f . H   ",
"  {+h . M &+&+&+&+&+&+&+&+&+&+] . &+&+&+&+&+&+&+&+&+&+u., i !+  ",
"    |.. { x.&+&+&+&+&+&+&+z.9 & . 2 X &+&+&+&+&+&+&+.+d . 3.    ",
"      : . ^ #+&+&+&+&+&+&+&+:.> . f &+&+&+&+&+&+&+&+u . j :+    ",
"      -+_ . f F.&+&+&+&+&+&+&+x 4 P.&+&+&+&+&+&+&+;.= B c.      ",
"        k.$ . t T.&+&+&+&+&+&+K.>.&+&+&+&+&+&+&+z * / n.        ",
"        ^+=+j . { Y P.&+&+&+&+&+&+&+&+&+&+@+r.3 . n #.          ",
"            p.D . . 8 T 8.U.#+&+&+&+++N.^.a = . m i.            ",
"              /+G h . . & 6 3 0 c 3 2 , . . h #.(+              ",
"                  ~+'.o : . . . . . . [ r ,.{+                  ",
"                      2+'+g.2.@.%.4.e.;+}+                      "};
