/* XPM */
static char * Megalyze22_small_xpm[] = {
"253 49 65 1",
" 	c None",
".	c #818181",
"+	c #000000",
"@	c #007FDF",
"#	c #007CDC",
"$	c #0079D9",
"%	c #0075D6",
"&	c #0072D3",
"*	c #006ED0",
"=	c #006BCD",
"-	c #0087E6",
";	c #0A9FE4",
">	c #099DE4",
",	c #0899E4",
"'	c #0798E4",
")	c #0796E4",
"!	c #0695E4",
"~	c #0593E5",
"{	c #0490E5",
"]	c #048FE5",
"^	c #038DE5",
"/	c #028CE5",
"(	c #0083E2",
"_	c #0080E0",
":	c #18BFE1",
"<	c #17BEE1",
"[	c #17BCE1",
"}	c #16BCE2",
"|	c #15B9E2",
"1	c #14B6E2",
"2	c #14B5E2",
"3	c #13B3E2",
"4	c #12B2E2",
"5	c #12B0E2",
"6	c #11AFE2",
"7	c #10ACE3",
"8	c #0FABE3",
"9	c #0EA9E3",
"0	c #0DA6E3",
"a	c #0CA3E3",
"b	c #0CA2E3",
"c	c #0BA0E4",
"d	c #03D4A8",
"e	c #06D4AE",
"f	c #08D4B2",
"g	c #09D4B3",
"h	c #0BD4B7",
"i	c #0DD4BC",
"j	c #10D4C0",
"k	c #12D5C5",
"l	c #15D5C9",
"m	c #17D5CE",
"n	c #19D5D2",
"o	c #1CD5D7",
"p	c #1ED5DB",
"q	c #1FD1E0",
"r	c #1ECFE0",
"s	c #1DCCE0",
"t	c #1CC9E1",
"u	c #1BC8E1",
"v	c #1BC6E1",
"w	c #1AC5E1",
"x	c #19C3E1",
"y	c #21D6E0",
"z	c #20D2E0",
"                                                    +++++++                                                                       ++                                                                                                                         ",
"                                          ++   +++++((((---++++                 +++++                                           ++43++                                                                                                                       ",
"          +++                +++        ++@_@+(((((----------^/++             ++!),,,++                                        +21212|+                                                                                                       +++++++        ",
"         +=**++            ++$$#+       +(((((----------^^^^^{]{]+           +',',>>>>>+++                         ++          +|||||}+                                                                                                      +dddddde++      ",
"        +**&&&&+           +###_@+     +(----------^/^/^{{{]{~~~~~+        +,>>>>>;c;c;aba++                      +33+         +[}}}[:+                                                                                                   ++dddeeeeefgf++    ",
"        +&&%%%%+          +@_@_((+     +------^^^^^{]{]{~~~~~!))))+       +>>;ccccaaaba00000+                    +111|+        +:::::x+                                                                                                 ++eeeeeggfgghhhhh+   ",
"       +%%%$$$$+          +((((---+    +-^/^/^{]{]{~~+++++!)!',,,'       +;c;ababa0000099999+                   +||||}+        +xxxxxv+                                                                                                +eefgfgfhhhhhiiiiij+  ",
"       +$$$#####+        +--------+     +{]{]{~~+++++     +++++>++     ++aaba00000++999787875+                 +}}}}}:+        +vvvvvt+                                                                                               +fgghhhhhiiiiijjjjjkk+ ",
"       +###_@_@_+        +-----^/^+     +~~~~~++              ++      +a00000999++  +++56565+                  +<:<:<xx+       +ttttts+                                                                                              +hhhhiiiii++++++kkkkll+ ",
"      +@_@_(((((+        +^^^/^{]{+     +!)))!+                       +09999978+       ++34++                 +:xxxxxwv+       +sssssr+                                                                                              +iiiijjj++      llllmmm+",
"      +((((-----+        +{{{]{~~~~+    +,,,,'+                      +9977777++          ++                  +xxwvwvwtt+       +rrrrrz+                                                                                              +jjjjkk+        +mmmnnn+",
"      +---------^+       +~~~~~))))+    +>>>>>+                     +7875555+                                +vvututuss+       +zzzzzy+                                                                                               +kkk++         +nnnooo+",
"      +----^/^/^{+      +~!)!)!,,,,+    +c;c;c+                     +565333+                                +tttsssssrrr+      +yyyyyy+                                                                                                +++          +ooooppp+",
"      +^^^^{]{]{~+      +)',','>>>>+    +baaab+                    +4343121+                               +ssssrrrrrqzz+      +yyyyyo+    +++                +++  +++++++++++++++++++++          +++++++                                           +ppppyy+ ",
"     +{]{]{~~~~~!+     +,'>>>>>c;c;c+   +00000+                    +2121||+                               +rrrrrq+qzqyyy+      +ooooon+  +mmmm+             +jiii++hhhhhfgfgfeeeeedddddd+      +++fgfgfhhhh+                                       +yyyyyyy+ ",
"     +~~~~~)))))'+     +>>cccccbaaab+  +099999+     +++++++++++    +||||}}+                               +zzzzz++yyyyyy+      +nnnnnm+ +mlllll+           +iihhhh+ggggfeeeeedddddddddde+     +fgghhhhhiiiii++                                     +yyyyyrr  ",
"     +!)!)!,,,,,>+     +;cbabab00000+  +977777++++++333321212||+  +}[}}}<+                               +qyyyyy+ +yyoooo+     +mmmmml+ +lkkkkk+           +hhfgfg+eeeeeddddddddddeeeeeg+   +hhhhhiiiiijjjjjkk+                                   +yrrrrrs+  ",
"     +',','>>>>>c;+   +bab000+099999+  +8655564343421212|||||}}}+ +::<::x+              +++++++         +yyyyyy+  +oonnnn+     +lllllk+ +kjjjjji+         +ggfeeee++dddddddddeeeeegggfgh+  +iiiiiijjjjjkkkkkll+                                 ++rrsssss+   ",
"     +>>>>>+;c;cba+   +000999+977777+  +63333421212|||||}}[}}:<:+ +xxxxx+       ++++++++rrrrqzq+       +yyyooo+   +nnmmmm+     +kkkkkj+  +iiiiihh+        +eeeddd+  +++deeeeegfgfghhhhh+  +ijjjjjjk+++++llllmmm+                              ++ssssttttt+   ",
"    +>ccccc+aaab00+   +99987++855555+  +411211|||||}}}}}:::::xxx+ +vvvvv+    +++ssrrrrrzzzzzyyyy+      +ooonnn+    +mllll+     +jjjjji+   +hhhhgg+       +ddddddd+     +++++++++hhiiii+   +jkkkkk++     ++mmnnn+                            ++stututvvv++    ",
"    +cbaba++000099+  +777765+ +333332+ +2|||||[}[}}:<:<:xxxxxvw+  +ttttt+  ++rrrrrqzqzqyyyyyyyyy+     +nnnnmm+     +lkkkkk+    +iiiiih+    +fgfeee+      +ddddee+             +iiijjj+   +kkllll+     ++nnnnooo+                           +tttvwvwvxx+      ",
"    +b0000+ +999878+ +555543+ +21211|+ +|}}}}}:::::xxx+++++++++  +usssss+ +rrqzzzzyyyyyyyyyyoooo+    +mmmmmll+    ++kjjjjj+    +hhhhhf+    +eeedddd+    +eeeeegg+            +jjjjkk+    +llmmmm   +++nooooopp+                           +vvwvxxxxx:+       ",
"   +009999+ +877656+ +333421+ +|||||}+ +}:<:<:++++++++           +srrrrr++qzqyyyyyyyyyyooooonnnn     +lllllk+++++jjjjiiiii+    +fgfgfe+     +dddddd+    +gfgfgh+            +kkkkkll+    +mmnnn+ ++oooopppppy++                          +xxxxx:<:<++        ",
"   +99878+  +555434+ +1211|+  +}}}}}:+ +:xxxxx+                  +rzzzz+ +yyyyyyyyooo+++nnnnmmm+   ++lkkkkkjjjjjiiiiihhhhh+    +eeeeed+     +ddeeeee+  +ghhhhhi+            +lllllm+    +nnnooo++opppppyyyyy+                           +x:::::}}++          ",
"  +777656+  +3332121+|||||[+   +<:<:x+ +xvwvwv+                  +qyyyy+ +yyyooooo+++  +mmmmlll+  +kkkjjjjjiiiiihhhhhgfgfg+    +dddddd+      +egfgfgh+ +hiiiii+            +lmmmmmn+    +ooopp+pppyyyyyyyy++                           +<:[}[}}|+            ",
"  +556434+   +12||||+}}}}}:+   +xxxxvw++vtutu+                   +yyyyy+  +oonnn++    +lllllkk+   +jjjiiiiihhhhhgfgggeeeee+    +ddddde+       +hhhhhi++iijjjjj+           +mmnnnnn+     +pppyyyyyyyyyyyr++                            +}}}|||||+             ",
"  +334212+   +||}}[}}:<:<:+    +wvwvtt++tssss+                   +yoooo+   +++++      +kkkkkjj+   +iiihhhhhgfgfgee+++dddddd+   +eeeeeg+       +iiiiijj+jjkkkk+           +nnnoooo+      +yyyyyyyyyrrrr++                              +|||212++              ",
" +1211||+    +}}:::::xxxxx+    +ututss++srrrr+                   +onnnn+             +kjjjjji+    +hhhggg+++++++++  +ddddde+   +gggfgh+        +jjjjkkkkkllll+          +ooooppp+       +yyyrrrrrrs+++                               +121143+                ",
" +||||[}+    +<:xxxxxvwvwv      +sssrr++rzqzq+                   +nmmmmm+           +jjiiiiih+   +fgfgee+            +eeeef+   +hhhhhi+        +kkkklllllmmm+          +pppppyy+        +rrrsssss++                                  +333365+                ",
" +}}}}::+     +xvvvvvtutu+      +rrrzq++zyyyy+                    +lllll+          +iiihhhhh+    +eeeedd+            +gggfhh+  +iiiiij+         +lllmmmmmnnn+         +pyyyyyy+          +ssutu++            +++                     +55558+        ++++     ",
" +<:<:xx+     +vtttttsss+       +zqzyyy+yyyyy+                    +kkkkk+        +hhhhhgfgf+    +dddddd+             +hhhhii+  +jjjjjk+         +mmmnnnnnoo+         +yyyyyyyr+          +ttwvwv+         ++}}[}+                    +77789+++++++++baba+++  ",
"+xxxxxvv+     +tsssssrrr+       +yyyyyy++ooooo+                   +jjjjjii+++++++hgggggeee+     +ddddde+              +iiijjj+ +kkkkkl+          +nnooooopp+        +yyyrrrrr+++++++++   +vvxxxxxx++++++++}}||||+                    +999900000baaabccccc>>+ ",
"+vwvwvtt+      +rrrrrzqz+        +yyooo++nnnnn++++++++++++++++++   +iiiihhhhhgfgfgeeeeedd+     +deeeee+               +jjjkkk+ +lllllm+          +oopppppy+        +rrrrssssstttttwvwv++  +x<:<:<:[}[}}|||||2121+                    +0000bababc;c;c>>>>>,,,+",
"+tututs+        zqzzzyy+         +oonnn++mmmmmlllllkkkkkjjjjjii+    hhhhgfgggeeeeedddddd+      +efgggf+                +kklll+ +mmmmmn+           +pyyyyyy+       +sssssttutuwvvvwxxxxx+   +}}}}}}|||||21212434+                     +ababccc;c>>>>>',','!))+",
"+sssssr+        +yyyyyy+         +nnmmmm+lllllkkkkkjjjjjiiiiihhh+   +gfgeeeeeddddddddd++       +fhhhh+                  +lmmm+ +nnnnno+           +yyyyyy+       +stttttwvwvwxxxxx<:<:<}+   +|||||21212333336++                      +;c;c>>>>>,,,,,!)!)!~~~+",
"+rrrrrz+        +yyyyoo+          +mllll++kkkkjjjjjiiiiihhhhhggg+    ++eddddddddddee++          +iiii+                  ++nnn  +ooooo+           +yyrrrrr+       +uvvvvvxxxxx:::::}}}}}|+    ++211434345555++                         +>>>','+++++++++++~{]++",
" +qzqz+          +ooo++           +lkkkk  ++jjiiiiihhhhhfgfgfee+       +++dddeeee+++             ++++                     +++   ++pp++           +rrssss+        +wxxxxx<:+++++++}|||||+       +++6565677++                            ++++++           +++  ",
"  ++++            +++              ++j++    +++hhhhggfggeeee+++           +++++++                                                 ++            +sssutut+         ++++++++       ++++++           +++++++                                                    ",
"                                     +         +++++++++++++                                                                                    +tttwvw+                                                                                                     ",
"                                                                                                                                               +vvvvxxx+                                                                                                     ",
"                                                                                                                                               +xxxx<:+                                                                                                      ",
"                                                                                                                                               +:<::}}+                                                                                                      ",
"                                                                                                                                              +}}}[}|+                                                                                                       ",
"                                                                                                                                              +|||||1+                                                                                                       ",
"                                                                                                                                              +12121+                                                                                                        ",
"                                                                                                                                             +134343+                                                                                                        ",
"                                                                                                                                             +356565+                                                                                                        ",
"                                                                                                                                              +7878+                                                                                                         ",
"                                                                                                                                              +++++                                                                                                          "};
