/* XPM */
static char * Pause2_xpm[] = {
"32 32 180 2",
"  	c None",
". 	c #004B93",
"+ 	c #004C93",
"@ 	c #034E93",
"# 	c #074F93",
"$ 	c #014C94",
"% 	c #014D94",
"& 	c #024D94",
"* 	c #034D94",
"= 	c #044F95",
"- 	c #044F96",
"; 	c #054F96",
"> 	c #055096",
", 	c #065096",
"' 	c #065197",
") 	c #075297",
"! 	c #085094",
"~ 	c #0D5396",
"{ 	c #0E5496",
"] 	c #0F5496",
"^ 	c #0F5596",
"/ 	c #085298",
"( 	c #095298",
"_ 	c #085398",
": 	c #095398",
"< 	c #0A5499",
"[ 	c #0B5499",
"} 	c #0A5599",
"| 	c #0B5599",
"1 	c #0B559A",
"2 	c #0C559A",
"3 	c #0C569A",
"4 	c #0D569A",
"5 	c #0D569B",
"6 	c #0D579B",
"7 	c #0E579B",
"8 	c #0E579C",
"9 	c #0F589C",
"0 	c #115696",
"a 	c #125697",
"b 	c #125797",
"c 	c #135797",
"d 	c #145897",
"e 	c #155897",
"f 	c #155997",
"g 	c #155998",
"h 	c #165998",
"i 	c #175998",
"j 	c #175A98",
"k 	c #10599C",
"l 	c #11599D",
"m 	c #115A9D",
"n 	c #125A9E",
"o 	c #125B9E",
"p 	c #135C9F",
"q 	c #145C9F",
"r 	c #155D9F",
"s 	c #185998",
"t 	c #185A98",
"u 	c #195A98",
"v 	c #1B5C99",
"w 	c #1C5C99",
"x 	c #21609B",
"y 	c #2D679D",
"z 	c #366D9F",
"A 	c #155DA0",
"B 	c #175FA1",
"C 	c #1860A2",
"D 	c #1C63A4",
"E 	c #1D63A4",
"F 	c #1D64A5",
"G 	c #1E64A5",
"H 	c #2167A7",
"I 	c #2369A8",
"J 	c #266BAA",
"K 	c #276CAB",
"L 	c #356DA1",
"M 	c #376DA0",
"N 	c #366DA1",
"O 	c #376EA1",
"P 	c #386EA0",
"Q 	c #386EA2",
"R 	c #2C70AE",
"S 	c #2E71AF",
"T 	c #3D71A1",
"U 	c #3E71A1",
"V 	c #3E72A1",
"W 	c #3275B1",
"X 	c #3376B2",
"Y 	c #3578B3",
"Z 	c #3B7DB7",
"` 	c #3D7EB8",
" .	c #4173A2",
"..	c #4677A5",
"+.	c #4777A6",
"@.	c #4877A4",
"#.	c #4878A6",
"$.	c #4879A6",
"%.	c #4B7AA6",
"&.	c #4C7BA7",
"*.	c #3F80B9",
"=.	c #4081BA",
"-.	c #4383BB",
";.	c #4484BD",
">.	c #4686BE",
",.	c #4988BF",
"'.	c #6287AA",
").	c #6288AA",
"!.	c #6288AD",
"~.	c #6289AD",
"{.	c #688CAF",
"].	c #6B8EAF",
"^.	c #6E8FAD",
"/.	c #6F8FAD",
"(.	c #7292AE",
"_.	c #7392AE",
":.	c #6B8FB0",
"<.	c #7E98B0",
"[.	c #7F99B1",
"}.	c #7F9AB1",
"|.	c #4B8AC1",
"1.	c #4E8DC3",
"2.	c #508EC4",
"3.	c #5491C6",
"4.	c #5592C6",
"5.	c #5995C9",
"6.	c #5A97CA",
"7.	c #5B97CB",
"8.	c #5C98CB",
"9.	c #5C98CC",
"0.	c #609BCD",
"a.	c #609BCE",
"b.	c #619CCE",
"c.	c #649ED0",
"d.	c #649FD0",
"e.	c #659FD1",
"f.	c #66A0D1",
"g.	c #67A1D2",
"h.	c #68A2D2",
"i.	c #68A2D3",
"j.	c #6CA5D5",
"k.	c #6FA8D7",
"l.	c #70A9D8",
"m.	c #72AAD8",
"n.	c #72AAD9",
"o.	c #73ABD9",
"p.	c #74ACDA",
"q.	c #75ACDA",
"r.	c #75ADDA",
"s.	c #76ADDB",
"t.	c #76AEDB",
"u.	c #77AEDB",
"v.	c #77AEDC",
"w.	c #78AFDC",
"x.	c #79B0DD",
"y.	c #89A0B7",
"z.	c #99A9B7",
"A.	c #9BAAB7",
"B.	c #90A5B9",
"C.	c #91A6BA",
"D.	c #95A9BB",
"E.	c #96A9BB",
"F.	c #9CABB8",
"G.	c #9DACB9",
"H.	c #9FADB9",
"I.	c #A1AEB9",
"J.	c #A2AFBA",
"K.	c #A5B0BA",
"L.	c #A6B1BB",
"M.	c #B2B8BD",
"N.	c #B3B9BE",
"O.	c #B7BCBF",
"P.	c #B6BDC4",
"Q.	c #C3C3C2",
"R.	c #C1C4C6",
"S.	c #C1C4C7",
"T.	c #C3C5C7",
"U.	c #C5C6C7",
"V.	c #C9C9C9",
"W.	c #CFCFCE",
"                      P.C.:.&.N N +.{.D.T.                      ",
"                  J.z v ] . . . . . . { h y G.                  ",
"                 .0 . . & [ } 5 7 1 2 , . . a @.O.              ",
"            F.] . . _ D ,.h.t.x.x.v.j.3.W 1 & . c ).            ",
"        K._.~ . : R k.x.x.x.x.x.x.x.x.x.x.x.Z 7 . t <.          ",
"        z.@ . 7 4.x.x.x.x.x.x.x.x.x.x.x.x.x.x.j.o & # P         ",
"      [.a . r c.x.x.x.x.x.x.x.x.x.x.x.x.x.x.x.x.x.q * e /.      ",
"    L.t . 6 a.x.x.x.x.x.x.x.x.x.x.x.x.x.x.x.x.x.x.x.C . d N.    ",
"    x . > 5.x.x.x.l.m.m.m.m.w.x.x.r.m.m.m.m.n.x.x.x.x.9 . P     ",
"  H.0 . p x.x.x.x.K 2 2 2 m p.x.x.b.9 2 2 2 =.x.x.x.x.>.= 0 J.  ",
"  V . / 9.x.x.x.x.I . . . 3 p.x.x.b.< . . . *.x.x.x.x.x.q . U   ",
"U.g . n x.x.x.x.x.I . . . 3 p.x.x.b.< . . . *.x.x.x.x.x.;.+ i S.",
"E.{ . R x.x.x.x.x.I . . . 3 p.x.x.b.< . . . *.x.x.x.x.x.j./ ] C.",
"{.. ; 7.x.x.x.x.x.I . . . 3 p.x.x.b.< . . . *.x.x.x.x.x.x.3 . ~.",
"... ( g.x.x.x.x.x.I . . . 3 p.x.x.b.< . . . *.x.x.x.x.x.x.A . $.",
"N . < k.x.x.x.x.x.I . . . 3 p.x.x.b.< . . . *.x.x.x.x.x.x.E . Q ",
"y.. < l.x.x.x.x.x.I . . . 3 p.x.x.b.< . . . *.x.x.x.x.x.x.G . N ",
"%.. / h.x.x.x.x.x.I . . . 3 p.x.x.b.< . . . *.x.x.x.x.x.x.A . ..",
"].. - 8.x.x.x.x.x.I . . . 3 p.x.x.b.< . . . *.x.x.x.x.x.x.3 . {.",
"B.^ . Y x.x.x.x.x.I . . . 3 p.x.x.b.< . . . *.x.x.x.x.x.i.: { D.",
"P.w . k x.x.x.x.x.I . . . 3 p.x.x.b.< . . . *.x.x.x.x.x.` + h T.",
"  z . / 8.x.x.x.x.J [ | | 9 p.x.x.b.6 | | : =.x.x.x.x.x.9 . y   ",
"  I.0 . B x.x.x.x.g.e.f.f.e.u.x.x.m.e.f.f.e.j.x.x.x.x.1.= a G.  ",
"     .. ' 2.x.x.x.x.x.x.x.x.x.x.x.x.x.x.x.x.x.x.x.x.l.8 . @.    ",
"      { . ) s.x.x.x.x.x.x.x.x.x.x.x.x.x.x.x.x.x.x.x.m . b O.    ",
"      A.~ . 9 6.x.x.x.x.x.x.x.x.x.x.x.x.x.x.x.x.x.S & s '.      ",
"        (.@ . l d.x.x.x.x.x.x.x.x.x.x.x.x.x.x.x.q % ! <.        ",
"        K.z.b . ' H b.x.x.x.x.x.x.x.x.x.x.q.|.< . f M           ",
"            }.u . . 2 F -.f.s.x.x.x.o.0.X 5 & . e ^.            ",
"              L.x 0 . . $ | < 4 7 < : = . . 0 M M.              ",
"                  H.U g { . . . . . . ^ j T I.                  ",
"                      U.E.{.+.L O #.!.B.R.                      "};
