/* XPM */
static char * Reset2_xpm[] = {
"32 32 193 2",
"  	c None",
". 	c #004B93",
"+ 	c #004C93",
"@ 	c #034D93",
"# 	c #044D93",
"$ 	c #044E93",
"% 	c #014C94",
"& 	c #024C94",
"* 	c #024D94",
"= 	c #034D94",
"- 	c #034E95",
"; 	c #034F95",
"> 	c #044F95",
", 	c #054F95",
"' 	c #064F94",
") 	c #074F94",
"! 	c #044F96",
"~ 	c #054F96",
"{ 	c #075094",
"] 	c #055096",
"^ 	c #065096",
"/ 	c #065196",
"( 	c #065097",
"_ 	c #075197",
": 	c #085094",
"< 	c #095194",
"[ 	c #0A5295",
"} 	c #085397",
"| 	c #0E5496",
"1 	c #0F5496",
"2 	c #085298",
"3 	c #085398",
"4 	c #095398",
"5 	c #0A5499",
"6 	c #0B5499",
"7 	c #0B5599",
"8 	c #0B559A",
"9 	c #0C559A",
"0 	c #0C569A",
"a 	c #0D569A",
"b 	c #0D569B",
"c 	c #0D579B",
"d 	c #0E579B",
"e 	c #0F589B",
"f 	c #0F589C",
"g 	c #105596",
"h 	c #135797",
"i 	c #145897",
"j 	c #155897",
"k 	c #155998",
"l 	c #165998",
"m 	c #175998",
"n 	c #175A98",
"o 	c #115A9D",
"p 	c #125A9D",
"q 	c #125B9E",
"r 	c #135C9F",
"s 	c #145C9F",
"t 	c #185A98",
"u 	c #1C5D99",
"v 	c #1D5D9A",
"w 	c #205F9A",
"x 	c #21609A",
"y 	c #22609B",
"z 	c #23609B",
"A 	c #23619B",
"B 	c #26639C",
"C 	c #29659C",
"D 	c #155EA0",
"E 	c #165EA1",
"F 	c #1860A2",
"G 	c #1C63A4",
"H 	c #1D64A5",
"I 	c #1E64A5",
"J 	c #1E65A5",
"K 	c #2066A6",
"L 	c #2167A7",
"M 	c #2368A8",
"N 	c #2469A9",
"O 	c #246AA9",
"P 	c #276CAB",
"Q 	c #2A6EAC",
"R 	c #2A6FAC",
"S 	c #2C70AE",
"T 	c #2E72AF",
"U 	c #3073B0",
"V 	c #3275B1",
"W 	c #3376B2",
"X 	c #3477B2",
"Y 	c #3578B3",
"Z 	c #3779B4",
"` 	c #3779B5",
" .	c #397AB5",
"..	c #397BB5",
"+.	c #3B7DB7",
"@.	c #3D7FB8",
"#.	c #3E7EB8",
"$.	c #5D84A9",
"%.	c #5D85A9",
"&.	c #5E85A9",
"*.	c #5F85A9",
"=.	c #4484BC",
"-.	c #4584BC",
";.	c #4585BD",
">.	c #4685BD",
",.	c #4786BE",
"'.	c #4787BE",
").	c #4887BF",
"!.	c #6086A9",
"~.	c #6187AA",
"{.	c #668AAB",
"].	c #6389AD",
"^.	c #638AAD",
"/.	c #658BAE",
"(.	c #668CAE",
"_.	c #678CAE",
":.	c #688BAB",
"<.	c #698BAC",
"[.	c #698CAC",
"}.	c #6A8CAC",
"|.	c #7291AE",
"1.	c #7796B3",
"2.	c #7896B3",
"3.	c #7A98B3",
"4.	c #7B98B4",
"5.	c #7C99B4",
"6.	c #4C8BC1",
"7.	c #4D8CC2",
"8.	c #4F8DC3",
"9.	c #508EC3",
"0.	c #528FC4",
"a.	c #5290C5",
"b.	c #5390C5",
"c.	c #5492C7",
"d.	c #5592C7",
"e.	c #5693C7",
"f.	c #5895C9",
"g.	c #5996C9",
"h.	c #5C98CB",
"i.	c #5E99CC",
"j.	c #609BCD",
"k.	c #609CCE",
"l.	c #629DCE",
"m.	c #629DCF",
"n.	c #649ED0",
"o.	c #649FD0",
"p.	c #659FD0",
"q.	c #659FD1",
"r.	c #65A0D1",
"s.	c #67A1D2",
"t.	c #68A2D2",
"u.	c #6AA4D4",
"v.	c #6BA4D4",
"w.	c #6CA5D5",
"x.	c #6DA6D6",
"y.	c #6EA7D6",
"z.	c #6FA8D7",
"A.	c #70A9D8",
"B.	c #71AAD8",
"C.	c #72AAD9",
"D.	c #75ACDA",
"E.	c #76ADDB",
"F.	c #76AEDB",
"G.	c #77AEDB",
"H.	c #77AEDC",
"I.	c #78AFDC",
"J.	c #79B0DD",
"K.	c #8FA3B5",
"L.	c #8AA1B8",
"M.	c #8AA2B8",
"N.	c #90A4B5",
"O.	c #98A8B7",
"P.	c #93A7BA",
"Q.	c #94A8BA",
"R.	c #95A8BB",
"S.	c #98AABB",
"T.	c #A1AEB9",
"U.	c #ACB5BC",
"V.	c #B4BABE",
"W.	c #B6BBBE",
"X.	c #B9BCBF",
"Y.	c #B9BDBF",
"Z.	c #BABDBF",
"`.	c #BABEBF",
" +	c #BBBEBF",
".+	c #B1BAC2",
"++	c #B2BAC2",
"@+	c #BBBEC0",
"#+	c #B8BEC4",
"$+	c #BAC0C5",
"%+	c #C3C3C2",
"&+	c #C9C9C9",
"*+	c #CFCFCE",
"                        .+Q.5.^./.3.S.++                        ",
"                  @+!.u n | ) . . ) | m C $.X.                  ",
"                }.k # . . ] 3 6 8 5 _ + . # l {.Z.              ",
"            Z.w ' . , d T d.t.A.C.u.k.Z F 5 . ) u W.            ",
"        V.O.h . = d h.J.J.J.J.J.J.J.J.J.J.s.H 9 . i  +V.        ",
"        `.[ . 2 6.J.J.J.J.J.J.J.J.J.J.J.J.J.J.9.0 . < O.        ",
"      T.u . r c.J.J.J.J.J.J.J.J.J.J.J.J.J.J.J.J.J.d . z N.      ",
"      A . ^ ;.J.J.J.J.J.J.J.J.J.J.J.J.J.J.J.J.J.J.J.f . t       ",
"    ~.: & L J.J.J.J.J.J.J.J.J.J.J.J.J.J.J.J.J.J.J.J.b.d : &.    ",
"  U.u . d B.J.J.J.J.J.J.J.J.J.8.h.J.J.J.J.J.J.J.J.J.J.T + l @+  ",
"  |.@ - #.J.J.J.J.J.J.J.J.J.X 5 d.J.J.J.J.J.J.J.J.J.J.J.4 @ <.  ",
"  B . 5 D.J.J.J.J.J.J.J.a.a * ] d.J.J.J.J.J.J.J.J.J.J.J.Q . x   ",
"$+i . K J.J.J.J.J.J.w.G 2 . . > I L L L h.O L h.M m.J.J.f.- n .+",
"R.| . +.J.J.J.J.J.` 8 . . . . . . . . . h.7 . h.> i.J.J.A.5 g M.",
"2.' * b.J.J.G.e.c * . . . . . . . . . . h.7 . h.] i.J.J.J.6 ' 2.",
"^.. _ i.J.J.G p . . . . . . . . . . . . h.7 . h.] i.J.J.J.d . _.",
"#+. _ j.J.J.J.o.D ( . . . . . . . . . . h.7 . h.] i.J.J.J.f . ^.",
"4.' * e.J.J.J.J.J.).0 + . . . . . . . . h.5 . h.; i.J.J.H.8 ' 3.",
"P.1 . =.J.J.J.J.J.J.E.R 5 . . ! P U U U h.V U h.E q.J.J.v.9 | S.",
".+n . J J.J.J.J.J.J.J.J.l.r ~ ] d.J.J.J.J.J.J.J.J.J.J.J.g.- m ++",
"  u . 5 F.J.J.J.J.J.J.J.J.J.-.0 d.J.J.J.J.J.J.J.J.J.J.J.N . C   ",
"  *.$ - >.J.J.J.J.J.J.J.J.J.J.h.k.J.J.J.J.J.J.J.J.J.J.x.b $ $.  ",
"  Z.l . 8 J.J.J.J.J.J.J.J.J.J.J.J.J.J.J.J.J.J.J.J.J.J.O + n X.  ",
"    [.) % ..J.J.J.J.J.J.J.J.J.J.J.J.J.J.J.J.J.J.J.J.a.e ) {.    ",
"      w . > r.B.J.J.J.J.J.J.J.J.J.J.J.J.J.J.J.J.J.w.f . v Z.    ",
"      Y.h . d '.J.J.J.J.J.J.J.J.J.J.J.J.J.J.J.J.D.q . j W.      ",
"        O.[ . 5 Q I.J.J.J.J.J.J.J.J.J.J.J.J.J.y.9 . [ `.        ",
"        V. +u . ~ d 7.J.J.J.J.J.J.J.J.J.J.A.S / . A O.V.        ",
"            T.y { . ^ c W 0.q.p.C.z.n.,.s 2 . { t K.            ",
"                ~.u @ . . ] 4 } 8 4 _ + . @ l %.                ",
"                  U.|.B i | ) . . ) g n w :.Z.                  ",
"                        $+R.2.].(.1.L..+                        "};
