/* XPM */
static char * Start2_xpm[] = {
"32 32 189 2",
"  	c None",
". 	c #004B93",
"+ 	c #004C93",
"@ 	c #034E93",
"# 	c #074F93",
"$ 	c #014C94",
"% 	c #014D94",
"& 	c #024D94",
"* 	c #034D94",
"= 	c #044E95",
"- 	c #044F95",
"; 	c #054F95",
"> 	c #044F96",
", 	c #054F96",
"' 	c #055096",
") 	c #065096",
"! 	c #065197",
"~ 	c #075297",
"{ 	c #085094",
"] 	c #0D5396",
"^ 	c #0E5496",
"/ 	c #0F5496",
"( 	c #0F5596",
"_ 	c #085298",
": 	c #095298",
"< 	c #085398",
"[ 	c #095398",
"} 	c #0A5499",
"| 	c #0B5499",
"1 	c #0A5599",
"2 	c #0B5599",
"3 	c #0B559A",
"4 	c #0C559A",
"5 	c #0C569A",
"6 	c #0D569A",
"7 	c #0D569B",
"8 	c #0D579B",
"9 	c #0E579B",
"0 	c #0E579C",
"a 	c #0F589C",
"b 	c #115696",
"c 	c #125697",
"d 	c #125797",
"e 	c #135797",
"f 	c #145897",
"g 	c #155897",
"h 	c #155997",
"i 	c #155998",
"j 	c #165998",
"k 	c #175998",
"l 	c #175A98",
"m 	c #10599C",
"n 	c #11599D",
"o 	c #115A9D",
"p 	c #125A9E",
"q 	c #125B9E",
"r 	c #135C9E",
"s 	c #135C9F",
"t 	c #145C9F",
"u 	c #155D9F",
"v 	c #185998",
"w 	c #185A98",
"x 	c #195A98",
"y 	c #1B5C99",
"z 	c #1C5C99",
"A 	c #21609B",
"B 	c #2D679D",
"C 	c #366D9F",
"D 	c #155DA0",
"E 	c #155EA0",
"F 	c #175FA1",
"G 	c #1860A2",
"H 	c #1C63A4",
"I 	c #1D63A4",
"J 	c #1D64A5",
"K 	c #1E64A5",
"L 	c #2167A7",
"M 	c #266BAA",
"N 	c #356DA1",
"O 	c #376DA0",
"P 	c #366DA1",
"Q 	c #376EA1",
"R 	c #386EA0",
"S 	c #386EA2",
"T 	c #2C70AE",
"U 	c #2E71AF",
"V 	c #3D71A1",
"W 	c #3E71A1",
"X 	c #3E72A1",
"Y 	c #3275B1",
"Z 	c #3276B2",
"` 	c #3376B2",
" .	c #3578B3",
"..	c #3A7BB6",
"+.	c #3B7DB7",
"@.	c #3C7DB7",
"#.	c #3D7EB8",
"$.	c #3E7FB9",
"%.	c #4173A2",
"&.	c #4677A5",
"*.	c #4777A6",
"=.	c #4877A4",
"-.	c #4878A6",
";.	c #4879A6",
">.	c #4B7AA6",
",.	c #4C7BA7",
"'.	c #3F80B9",
").	c #4081BA",
"!.	c #4283BB",
"~.	c #4383BB",
"{.	c #4484BD",
"].	c #4686BE",
"^.	c #4988BF",
"/.	c #6287AA",
"(.	c #6288AA",
"_.	c #6288AD",
":.	c #6289AD",
"<.	c #688CAF",
"[.	c #6B8EAF",
"}.	c #6E8FAD",
"|.	c #6F8FAD",
"1.	c #7292AE",
"2.	c #7392AE",
"3.	c #6B8FB0",
"4.	c #7E98B0",
"5.	c #7F99B1",
"6.	c #7F9AB1",
"7.	c #4A89C0",
"8.	c #4B8AC1",
"9.	c #4E8DC3",
"0.	c #508EC4",
"a.	c #5491C6",
"b.	c #5592C6",
"c.	c #5995C9",
"d.	c #5A97CA",
"e.	c #5B97CA",
"f.	c #5B97CB",
"g.	c #5C98CB",
"h.	c #5C98CC",
"i.	c #609BCD",
"j.	c #609BCE",
"k.	c #619CCE",
"l.	c #649ED0",
"m.	c #649FD0",
"n.	c #66A0D1",
"o.	c #67A1D2",
"p.	c #68A1D2",
"q.	c #68A2D2",
"r.	c #68A2D3",
"s.	c #69A3D3",
"t.	c #6AA4D4",
"u.	c #6BA5D4",
"v.	c #6CA5D5",
"w.	c #6DA6D5",
"x.	c #6FA8D7",
"y.	c #70A9D8",
"z.	c #73ABD9",
"A.	c #74ACDA",
"B.	c #75ACDA",
"C.	c #76ADDB",
"D.	c #76AEDB",
"E.	c #77AEDB",
"F.	c #77AEDC",
"G.	c #79B0DD",
"H.	c #89A0B7",
"I.	c #99A9B7",
"J.	c #9BAAB7",
"K.	c #90A5B9",
"L.	c #91A6BA",
"M.	c #95A9BB",
"N.	c #96A9BB",
"O.	c #9CABB8",
"P.	c #9DACB9",
"Q.	c #9FADB9",
"R.	c #A1AEB9",
"S.	c #A2AFBA",
"T.	c #A5B0BA",
"U.	c #A6B1BB",
"V.	c #B2B8BD",
"W.	c #B3B9BE",
"X.	c #B7BCBF",
"Y.	c #B6BDC4",
"Z.	c #C3C3C2",
"`.	c #C1C4C6",
" +	c #C1C4C7",
".+	c #C3C5C7",
"++	c #C5C6C7",
"@+	c #C9C9C9",
"#+	c #CFCFCE",
"                      Y.L.3.,.P P *.<.M..+                      ",
"                  S.C y / . . . . . . ^ j B P.                  ",
"                %.b . . & | 1 7 9 3 4 ) . . c =.X.              ",
"            O./ . . < H ^.q.D.G.G.F.v.a.Y 3 & . e (.            ",
"        T.2.] . [ T x.G.G.G.G.G.G.G.G.G.G.G.+.9 . w 4.          ",
"        I.@ . 9 b.G.G.G.G.G.G.G.G.G.G.G.G.G.G.v.q & # R         ",
"      5.c . u l.G.G.G.E.A.G.G.G.G.G.G.G.G.G.G.G.G.t * g |.      ",
"    U.w . 8 j.G.G.G.G.M !.G.G.G.G.G.G.G.G.G.G.G.G.G.G . f W.    ",
"    A . ' c.G.G.G.G.G.G > F w.G.G.G.G.G.G.G.G.G.G.G.G.a . R     ",
"  Q.b . s G.G.G.G.G.G.G . . 4 ).G.G.G.G.G.G.G.G.G.G.G.].- b S.  ",
"  X . _ h.G.G.G.G.G.G.G . . . , E v.G.G.G.G.G.G.G.G.G.G.t . W   ",
"++i . p G.G.G.G.G.G.G.G . . . . . 3 $.G.G.G.G.G.G.G.G.G.{.+ k  +",
"N.^ . T G.G.G.G.G.G.G.G . . . . . . ; u t.G.G.G.G.G.G.G.v._ / L.",
"<.. , f.G.G.G.G.G.G.G.G . . . . . . . . 3 @.G.G.G.G.G.G.G.5 . :.",
"&.. : o.G.G.G.G.G.G.G.G . . . . . . . . . ; t s.G.G.G.G.G.D . ;.",
"P . } x.G.G.G.G.G.G.G.G . . . . . . . . . . . 2 Z G.G.G.G.I . S ",
"H.. } y.G.G.G.G.G.G.G.G . . . . . . . . . . = p e.G.G.G.G.K . P ",
">.. _ q.G.G.G.G.G.G.G.G . . . . . . . . . 3 ..G.G.G.G.G.G.D . &.",
"[.. > g.G.G.G.G.G.G.G.G . . . . . . . = r p.G.G.G.G.G.G.G.5 . <.",
"K.( .  .G.G.G.G.G.G.G.G . . . . . . 2 +.G.G.G.G.G.G.G.G.r.[ ^ M.",
"Y.z . m G.G.G.G.G.G.G.G . . . . ; t t.G.G.G.G.G.G.G.G.G.#.+ j .+",
"  C . _ g.G.G.G.G.G.G.G . . . 2 #.G.G.G.G.G.G.G.G.G.G.G.a . B   ",
"  R.b . F G.G.G.G.G.G.G . , D u.G.G.G.G.G.G.G.G.G.G.G.9.- c P.  ",
"    %.. ! 0.G.G.G.G.G.G 3 '.G.G.G.G.G.G.G.G.G.G.G.G.y.0 . =.    ",
"      ^ . ~ C.G.G.G.G.7.v.G.G.G.G.G.G.G.G.G.G.G.G.G.o . d X.    ",
"      J.] . a d.G.G.G.G.G.G.G.G.G.G.G.G.G.G.G.G.G.U & v /.      ",
"        1.@ . n m.G.G.G.G.G.G.G.G.G.G.G.G.G.G.G.t % { 4.        ",
"        T.I.d . ! L k.G.G.G.G.G.G.G.G.G.G.B.8.} . h O           ",
"            6.x . . 4 J ~.n.C.G.G.G.z.i.` 7 & . g }.            ",
"              U.A b . . $ 2 } 6 9 } [ - . . b O V.              ",
"                  Q.W i ^ . . . . . . ( l V R.                  ",
"                      ++N.<.*.N Q -._.K.`.                      "};
