/* XPM */
static char * Stop2_xpm[] = {
"32 32 174 2",
"  	c None",
". 	c #004B93",
"+ 	c #004C93",
"@ 	c #034D93",
"# 	c #044D93",
"$ 	c #044E93",
"% 	c #014C94",
"& 	c #024C94",
"* 	c #024D94",
"= 	c #034D94",
"- 	c #034E95",
"; 	c #044F95",
"> 	c #054F95",
", 	c #064F94",
"' 	c #074F94",
") 	c #054F96",
"! 	c #075094",
"~ 	c #055096",
"{ 	c #065096",
"] 	c #065196",
"^ 	c #075197",
"/ 	c #085094",
"( 	c #095194",
"_ 	c #0A5295",
": 	c #085397",
"< 	c #0E5496",
"[ 	c #0F5496",
"} 	c #085298",
"| 	c #085398",
"1 	c #095398",
"2 	c #095399",
"3 	c #0A5499",
"4 	c #0B5499",
"5 	c #0B559A",
"6 	c #0C559A",
"7 	c #0C569A",
"8 	c #0D569A",
"9 	c #0D569B",
"0 	c #0D579B",
"a 	c #0E579B",
"b 	c #0F589B",
"c 	c #0F589C",
"d 	c #105596",
"e 	c #135797",
"f 	c #145897",
"g 	c #155897",
"h 	c #155998",
"i 	c #165998",
"j 	c #175998",
"k 	c #175A98",
"l 	c #10599D",
"m 	c #125B9E",
"n 	c #135C9F",
"o 	c #145C9F",
"p 	c #185A98",
"q 	c #1C5D99",
"r 	c #1D5D9A",
"s 	c #205F9A",
"t 	c #21609A",
"u 	c #22609B",
"v 	c #23609B",
"w 	c #23619B",
"x 	c #26639C",
"y 	c #29659C",
"z 	c #1860A2",
"A 	c #1D64A5",
"B 	c #1E65A5",
"C 	c #2066A6",
"D 	c #2167A7",
"E 	c #2469A9",
"F 	c #246AA9",
"G 	c #2A6EAC",
"H 	c #2C70AE",
"I 	c #2E72AF",
"J 	c #3376B2",
"K 	c #3779B4",
"L 	c #397BB5",
"M 	c #3B7DB7",
"N 	c #3E7EB8",
"O 	c #5D84A9",
"P 	c #5D85A9",
"Q 	c #5E85A9",
"R 	c #5F85A9",
"S 	c #4484BC",
"T 	c #4585BD",
"U 	c #4685BD",
"V 	c #4786BE",
"W 	c #4787BE",
"X 	c #6086A9",
"Y 	c #6187AA",
"Z 	c #668AAB",
"` 	c #6389AD",
" .	c #638AAD",
"..	c #658BAE",
"+.	c #668CAE",
"@.	c #678CAE",
"#.	c #688BAB",
"$.	c #698BAC",
"%.	c #698CAC",
"&.	c #6A8CAC",
"*.	c #7291AE",
"=.	c #7796B3",
"-.	c #7896B3",
";.	c #7A98B3",
">.	c #7B98B4",
",.	c #7C99B4",
"'.	c #4C8BC1",
").	c #4D8CC2",
"!.	c #508EC3",
"~.	c #528FC4",
"{.	c #5290C5",
"].	c #5390C5",
"^.	c #5492C7",
"/.	c #5592C7",
"(.	c #5693C7",
"_.	c #5794C8",
":.	c #5895C9",
"<.	c #5996C9",
"[.	c #5C98CB",
"}.	c #5E99CC",
"|.	c #609BCD",
"1.	c #609CCE",
"2.	c #619CCE",
"3.	c #629DCF",
"4.	c #649ED0",
"5.	c #659FD0",
"6.	c #659FD1",
"7.	c #65A0D1",
"8.	c #67A1D2",
"9.	c #68A2D2",
"0.	c #6AA4D4",
"a.	c #6BA4D4",
"b.	c #6CA5D5",
"c.	c #6DA6D5",
"d.	c #6DA6D6",
"e.	c #6EA7D6",
"f.	c #6FA7D6",
"g.	c #6FA8D7",
"h.	c #70A9D8",
"i.	c #71AAD8",
"j.	c #72AAD8",
"k.	c #72AAD9",
"l.	c #75ACDA",
"m.	c #76AEDB",
"n.	c #77AEDB",
"o.	c #77AEDC",
"p.	c #78AFDC",
"q.	c #79B0DD",
"r.	c #8FA3B5",
"s.	c #8AA1B8",
"t.	c #8AA2B8",
"u.	c #90A4B5",
"v.	c #98A8B7",
"w.	c #93A7BA",
"x.	c #94A8BA",
"y.	c #95A8BB",
"z.	c #98AABB",
"A.	c #A1AEB9",
"B.	c #ACB5BC",
"C.	c #B4BABE",
"D.	c #B6BBBE",
"E.	c #B9BCBF",
"F.	c #B9BDBF",
"G.	c #BABDBF",
"H.	c #BABEBF",
"I.	c #BBBEBF",
"J.	c #B1BAC2",
"K.	c #B2BAC2",
"L.	c #BBBEC0",
"M.	c #B8BEC4",
"N.	c #BAC0C5",
"O.	c #C3C3C2",
"P.	c #C9C9C9",
"Q.	c #CFCFCE",
"                        J.x.,. ...;.z.K.                        ",
"                  L.X q k < ' . . ' < j y O E.                  ",
"                &.h # . . ~ | 4 5 3 ^ + . # i Z G.              ",
"            G.s , . > a I /.9.h.k.0.1.K z 3 . ' q D.            ",
"        C.v.e . = a [.q.q.q.q.q.q.q.q.q.q.8.A 6 . f I.C.        ",
"        H._ . } '.q.q.q.q.q.q.q.q.q.q.q.q.q.q.!.7 . ( v.        ",
"      A.q . n ^.q.q.q.q.q.q.q.q.q.q.q.q.q.q.q.q.q.a . v u.      ",
"      w . { T q.q.q.q.q.q.q.q.q.q.q.q.q.q.q.q.q.q.q.c . p       ",
"    Y / & D q.q.q.q.q.q.q.q.q.q.q.q.q.q.q.q.q.q.q.q.].a / Q     ",
"  B.q . a i.q.q.q.n.3.2.2.2.2.2.2.2.2.2.2.3.f.q.q.q.q.I + i L.  ",
"  *.@ - N q.q.q.q.l.c 2 2 2 2 2 2 2 2 2 2 3 _.q.q.q.q.q.1 @ $.  ",
"  x . 3 l.q.q.q.q.l.7 . . . . . . . . . . { _.q.q.q.q.q.G . t   ",
"N.f . C q.q.q.q.q.l.7 . . . . . . . . . . { _.q.q.q.q.q.:.- k J.",
"y.< . M q.q.q.q.q.l.7 . . . . . . . . . . { _.q.q.q.q.q.h.3 d t.",
"-., * ].q.q.q.q.q.l.7 . . . . . . . . . . { _.q.q.q.q.q.q.4 , -.",
" .. ^ }.q.q.q.q.q.l.7 . . . . . . . . . . { _.q.q.q.q.q.q.a . @.",
"M.. ^ |.q.q.q.q.q.l.7 . . . . . . . . . . { _.q.q.q.q.q.q.c .  .",
">., * (.q.q.q.q.q.l.7 . . . . . . . . . . { _.q.q.q.q.q.o.5 , ;.",
"w.[ . S q.q.q.q.q.l.7 . . . . . . . . . . { _.q.q.q.q.q.a.6 < z.",
"J.k . B q.q.q.q.q.l.7 . . . . . . . . . . { _.q.q.q.q.q.<.- j K.",
"  q . 3 m.q.q.q.q.l.7 . . . . . . . . . . { _.q.q.q.q.q.E . y   ",
"  R $ - U q.q.q.q.l.l 5 5 5 5 5 5 5 5 5 5 8 _.q.q.q.q.d.9 $ O   ",
"  G.i . 5 q.q.q.q.o.b.c.c.c.c.c.c.c.c.c.c.b.j.q.q.q.q.F + k E.  ",
"    %.' % L q.q.q.q.q.q.q.q.q.q.q.q.q.q.q.q.q.q.q.q.{.b ' Z     ",
"      s . ; 7.i.q.q.q.q.q.q.q.q.q.q.q.q.q.q.q.q.q.b.c . r G.    ",
"      F.e . a W q.q.q.q.q.q.q.q.q.q.q.q.q.q.q.q.l.m . g D.      ",
"        v._ . 3 G p.q.q.q.q.q.q.q.q.q.q.q.q.q.e.6 . _ H.        ",
"        C.I.q . ) a ).q.q.q.q.q.q.q.q.q.q.h.H ] . w v.C.        ",
"            A.u ! . { 0 J ~.6.5.k.g.4.V o } . ! p r.            ",
"                Y q @ . . ~ 1 : 5 1 ^ + . @ i P                 ",
"                  B.*.x f < ' . . ' d k s #.G.                  ",
"                        N.y.-.` +.=.s.J.                        "};
