/* XPM */
static char * Forward_v3_xpm[] = {
"32 32 20 1",
" 	c None",
".	c #E3DFDF",
"+	c #C9CBC5",
"@	c #97A494",
"#	c #60795D",
"$	c #345732",
"%	c #1C441B",
"&	c #DDDAD9",
"*	c #164015",
"=	c #A5AFA2",
"-	c #D7D6D3",
";	c #174316",
">	c #296427",
",	c #429440",
"'	c #59C057",
")	c #66DA64",
"!	c #388237",
"~	c #6AE168",
"{	c #225821",
"]	c #66D964",
"...........+@#$%%$#@+...........",
"........&@%**********%@&........",
".......=****************=.......",
".....&#******************#&.....",
"....-$*****;>,'))',>;*****$-....",
"...&$****;!~~~~~~~~~~!;****$&...",
"...#****{]~~~~~~~~~~~~]{****#...",
"..=****>~~~~~~~~~~~~~~~~>****=..",
".&****{~~~~~~~~~~~~~~~~~~{****&.",
".@***;]~~~~~~~~~~~~~~~~~~];***@.",
".%***!~~~~~~~~~~~~~~~~~~~~!***%.",
"+***;~~~~~~**~~~~~~~*~~~~~~;***+",
"@***>~~~~~~****~~~~~*~~~~~~>***@",
"#***,~~~~~~******~~~*~~~~~~,***#",
"$***'~~~~~~********~*~~~~~~'***$",
"%***)~~~~~~**********~~~~~~)***%",
"%***)~~~~~~**********~~~~~~)***%",
"$***'~~~~~~********~*~~~~~~'***$",
"#***,~~~~~~******~~~*~~~~~~,***#",
"@***>~~~~~~****~~~~~*~~~~~~>***@",
"+***;~~~~~~**~~~~~~~*~~~~~~;***+",
".%***!~~~~~~~~~~~~~~~~~~~~!***%.",
".@***;]~~~~~~~~~~~~~~~~~~];***@.",
".&****{~~~~~~~~~~~~~~~~~~{****&.",
"..=****>~~~~~~~~~~~~~~~~>****=..",
"...#****{]~~~~~~~~~~~~]{****#...",
"...&$****;!~~~~~~~~~~!;****$&...",
"....-$*****;>,'))',>;*****$-....",
".....&#******************#&.....",
".......=****************=.......",
"........&@%**********%@&........",
"...........+@#$%%$#@+..........."};
