/* XPM */
static char * Logo64_xpm[] = {
"64 64 242 2",
"  	c None",
". 	c #FFFFFF",
"+ 	c #FCFCFC",
"@ 	c #FBFBFB",
"# 	c #F0F0F0",
"$ 	c #FEFEFE",
"% 	c #F1F1F1",
"& 	c #BBBBBB",
"* 	c #8F8F8F",
"= 	c #5D5D5D",
"- 	c #393939",
"; 	c #9C9C9C",
"> 	c #BFBFBF",
", 	c #717171",
"' 	c #3A3A3A",
") 	c #020202",
"! 	c #000000",
"~ 	c #353535",
"{ 	c #B2B2B2",
"] 	c #878787",
"^ 	c #9A9A9A",
"/ 	c #ACACAC",
"( 	c #C2C2C2",
"_ 	c #DDDDDD",
": 	c #F5F5F5",
"< 	c #B1B1B1",
"[ 	c #3F3F3F",
"} 	c #070707",
"| 	c #040404",
"1 	c #1F1F1F",
"2 	c #545454",
"3 	c #C3C3C3",
"4 	c #CACACA",
"5 	c #010101",
"6 	c #101010",
"7 	c #323232",
"8 	c #575757",
"9 	c #7D7D7D",
"0 	c #A8A8A8",
"a 	c #D3D3D3",
"b 	c #E6E6E6",
"c 	c #BCBCBC",
"d 	c #3E3E3E",
"e 	c #121212",
"f 	c #424242",
"g 	c #929292",
"h 	c #D6D6D6",
"i 	c #303030",
"j 	c #0F0F0F",
"k 	c #2B2B2B",
"l 	c #ECECEC",
"m 	c #F8F8F8",
"n 	c #252525",
"o 	c #797979",
"p 	c #D1D1D1",
"q 	c #EDEDED",
"r 	c #CCCCCC",
"s 	c #C8C8C8",
"t 	c #B8B8B8",
"u 	c #AAAAAA",
"v 	c #989898",
"w 	c #7E7E7E",
"x 	c #5B5B5B",
"y 	c #141414",
"z 	c #050505",
"A 	c #676767",
"B 	c #A6A6A6",
"C 	c #DBDBDB",
"D 	c #414141",
"E 	c #090909",
"F 	c #E4E4E4",
"G 	c #FAFAFA",
"H 	c #EBEBEB",
"I 	c #C6C6C6",
"J 	c #5C5C5C",
"K 	c #282828",
"L 	c #626262",
"M 	c #202020",
"N 	c #FDFDFD",
"O 	c #D7D7D7",
"P 	c #8E8E8E",
"Q 	c #4A4A4A",
"R 	c #1E1E1E",
"S 	c #2A2A2A",
"T 	c #919191",
"U 	c #B7B7B7",
"V 	c #0C0C0C",
"W 	c #777777",
"X 	c #9F9F9F",
"Y 	c #555555",
"Z 	c #161616",
"` 	c #C9C9C9",
" .	c #C7C7C7",
"..	c #0E0E0E",
"+.	c #8D8D8D",
"@.	c #D2D2D2",
"#.	c #3C3C3C",
"$.	c #0B0B0B",
"%.	c #686868",
"&.	c #D4D4D4",
"*.	c #DCDCDC",
"=.	c #222222",
"-.	c #969696",
";.	c #F4F4F4",
">.	c #B4B4B4",
",.	c #707070",
"'.	c #E9E9E9",
").	c #898989",
"!.	c #595959",
"~.	c #171717",
"{.	c #999999",
"].	c #636363",
"^.	c #4C4C4C",
"/.	c #464646",
"(.	c #CDCDCD",
"_.	c #9D9D9D",
":.	c #484848",
"<.	c #A7A7A7",
"[.	c #2C2C2C",
"}.	c #1A1A1A",
"|.	c #9E9E9E",
"1.	c #7A7A7A",
"2.	c #151515",
"3.	c #494949",
"4.	c #8C8C8C",
"5.	c #EFEFEF",
"6.	c #4B4B4B",
"7.	c #191919",
"8.	c #BEBEBE",
"9.	c #DEDEDE",
"0.	c #BABABA",
"a.	c #333333",
"b.	c #373737",
"c.	c #232323",
"d.	c #979797",
"e.	c #EEEEEE",
"f.	c #939393",
"g.	c #383838",
"h.	c #6E6E6E",
"i.	c #A1A1A1",
"j.	c #858585",
"k.	c #606060",
"l.	c #313131",
"m.	c #111111",
"n.	c #E0E0E0",
"o.	c #212121",
"p.	c #A2A2A2",
"q.	c #ABABAB",
"r.	c #ADADAD",
"s.	c #C5C5C5",
"t.	c #E7E7E7",
"u.	c #A9A9A9",
"v.	c #535353",
"w.	c #7F7F7F",
"x.	c #828282",
"y.	c #5F5F5F",
"z.	c #F7F7F7",
"A.	c #B0B0B0",
"B.	c #242424",
"C.	c #E1E1E1",
"D.	c #F9F9F9",
"E.	c #C4C4C4",
"F.	c #727272",
"G.	c #767676",
"H.	c #181818",
"I.	c #474747",
"J.	c #A0A0A0",
"K.	c #E5E5E5",
"L.	c #B9B9B9",
"M.	c #5A5A5A",
"N.	c #DFDFDF",
"O.	c #7B7B7B",
"P.	c #D8D8D8",
"Q.	c #E2E2E2",
"R.	c #EAEAEA",
"S.	c #B3B3B3",
"T.	c #363636",
"U.	c #505050",
"V.	c #808080",
"W.	c #030303",
"X.	c #D9D9D9",
"Y.	c #D5D5D5",
"Z.	c #868686",
"`.	c #131313",
" +	c #737373",
".+	c #909090",
"++	c #525252",
"@+	c #3B3B3B",
"#+	c #444444",
"$+	c #616161",
"%+	c #C0C0C0",
"&+	c #1B1B1B",
"*+	c #565656",
"=+	c #5E5E5E",
"-+	c #2D2D2D",
";+	c #434343",
">+	c #E8E8E8",
",+	c #F2F2F2",
"'+	c #6C6C6C",
")+	c #D0D0D0",
"!+	c #848484",
"~+	c #6F6F6F",
"{+	c #656565",
"]+	c #646464",
"^+	c #787878",
"/+	c #0A0A0A",
"(+	c #F3F3F3",
"_+	c #4E4E4E",
":+	c #2E2E2E",
"<+	c #2F2F2F",
"[+	c #262626",
"}+	c #F6F6F6",
"|+	c #8B8B8B",
"1+	c #585858",
"2+	c #A4A4A4",
"3+	c #B6B6B6",
"4+	c #4D4D4D",
"5+	c #1D1D1D",
"6+	c #959595",
"7+	c #DADADA",
"8+	c #3D3D3D",
"9+	c #757575",
"0+	c #696969",
"a+	c #8A8A8A",
"b+	c #B5B5B5",
"c+	c #949494",
"d+	c #4F4F4F",
"e+	c #E3E3E3",
"f+	c #515151",
"g+	c #818181",
"h+	c #A5A5A5",
"i+	c #292929",
"j+	c #666666",
"k+	c #9B9B9B",
"l+	c #CBCBCB",
"m+	c #060606",
"n+	c #6D6D6D",
"o+	c #CFCFCF",
"p+	c #7C7C7C",
"q+	c #080808",
"r+	c #C1C1C1",
"s+	c #BDBDBD",
". . . . . . . . . . . . . . . . . . . . . . . . . . . . . . . . . . . . . . . . . . . . . . . . . . . . . + @ . . . + # . . . . ",
". $ . . . $ . . . $ . . . $ . . . $ . . . $ . . . $ . . . $ . . . $ . . . $ . . . $ . . . $ . . . $ . . . $ . % & * = - ; $ . . ",
". $ . . . $ . . . $ . . . $ . . . $ . . . $ . . . $ . . . $ . . . $ . . . $ . . . $ . . . $ . . . $ . . . > , ' ) ! ! ! ~ $ . . ",
". $ . . @ { ] ^ / ( _ : . $ . . . $ . . . $ . . . $ . . . $ . . . $ . . . $ . . . $ . . . $ . $ . $ . < [ } ! ! ! | 1 2 3 $ . . ",
". . . . 4 ! ! ! ! 5 } 6 7 8 9 0 a b + . . . @ @ . . . . . . . . . . . . . . . . . . . . . . + . . c d ! ! ! e f g h @ . . . . . ",
". $ . . _ i e j ! ! ! ! ! ! ! ! ! k = * > l . . . $ . . . $ . . . $ . . . $ . . . $ . . . $ . m , ! ! ! n o p . . $ . . . $ . . ",
". $ . . . q r s t u v w x - y ! ! ! ! ! z ~ A B % $ . . . $ . . . $ . . . $ . . . $ . . . $ C D ! ! E o F $ . . . $ . . . $ . . ",
". $ . . . $ . . . $ . . G H _ I g J n } ! ! ! ! K L > @ . $ . . . $ . . . $ . . . $ . . . 3 M ! ! [ r . . @ N . . $ . . . $ . . ",
". . . . . . . . . . . . . . . . . . N O P Q R ! ! ! ! S T _ . . $ + . . . . . . . . . . U V ! ! W . . . . . . . . . . . . . . . ",
". $ . . . $ . . . $ . . . $ . . . $ . . . $ b X Y Z ! ! ! e , ` . $ . . . $ . . . $ .  ...! ! +.. $ . . . $ . . . $ . . . $ . . ",
". $ . . . $ . . . $ . . . $ . . . $ . . . $ . . . @.g #.! ! ! $.%.&.. . . $ . . + $ *.=.! ! -.. . $ . . . $ . . . $ . . . $ . . ",
". $ . . . $ . . . $ . . . $ . . . $ . . . $ $ @ N $ . ;.>.Q z ! ! e ,.'.. $ . . . : [ ! ! ).. . N $ . . . $ . . . $ . . . $ . . ",
". . . . . . . . . . . . . . . . . . . . . . . . . . . . . . r !.z ! ! ~.{.N . + $ ].! ! W . . N . . . . . . . . . . . . . . . . ",
". $ . . . $ . . . $ . . . $ . . . $ . . . $ . . . $ . . . $ . . & ^.! ! ! /.(.. _.! ! :.. $ . . . $ . . . $ . . . $ . . . $ . . ",
". $ . . . $ . . . $ . . . $ . . . $ . . . $ . . . $ . . . $ . . . $ <.[.! ! V w ~.! }.C . $ . . . $ . . . $ . . . $ . . . $ . . ",
". $ . . . $ . . . $ . . . $ . . . $ . . . $ . . . $ . . . $ m @.|.1.= [ 2.! ! ! ! ! 3.4.u r 5.N . $ . . . $ . . . $ . . . $ . . ",
". . . . . . . . . . . . . . . . . . . . . N G . . . H ` ).6.7.z ! ! ! ! ! ! ! ! ! ! ! ! ! | V S J 4.8.9.N . . . @ N . . . . . . ",
". $ . . . $ . . . $ . . . $ . . . $ . . . $ . $ 0.o a.! ! ! ! ! 5 R b.Q !.].c.! ! ! ! V ! ! ! ! ! ! ! }.= d.r . . $ . . . $ . . ",
". $ . . . $ . . . $ . . . $ . . . $ . . . e.f.:.! ! ! ! 5 g.h.{.c h l $ . 9.n ! i | ! ! 1.i.j.k.l.5 ! ! ! ! m.Q T n.. . . $ . . ",
". $ . . . $ . . . $ . . . $ . . . $ . H 1.o.! ! ! E D g @.q . . . $ . . N p.! ! q.r.$.! m.s.. @ t.a u.%.M ! ! ! ! }.v.r.G $ . . ",
". . . . . . . . . . . . . . @ . . n.w.Z ! ! ! k x._ . . . . . . . . . . . y.! }.z.. A.} ! B.C.. . . . . D.E.F.i ! ! ! ! =.G.h . ",
". $ . . . $ . . . $ . . . $ . m 4.H.! ! ! I.J.m . $ . . . $ . . . $ . . C.}.! k.. $ . f.! ! v.. . $ . . . $ . N r.].B.! ! ! 1 K.",
". $ . . . $ . . . $ . . . $ 0.#.! ! ! D { $ . . . $ . . . $ . . . $ . . L.! ! u . $ . . M.! ! {.. $ . . . $ . . . $ N.i.^.! #.e.",
". $ . . . $ . . . $ . . H A ) ! ! [.u m . $ @ . . $ . . . $ . . . $ . . O.! $.P.. $ . . Q.M ! H.b $ . . . $ . . @ + . . : p R.. ",
". . . . . . . . + . . S.M ! ! m.P G . . . . . . . . . . . . . . . . . . T.! 6.;.. . . . . r.! ! y.. . . . . . . . . . . . . . . ",
". $ . . . $ . . . m G.! ! ! U.&.. $ . . . $ . . . $ . . . $ . . . $ . H $.! V.. . $ . . . $ J ! W.0.. + . $ . . . $ . . . $ . . ",
". $ . . . $ . . X.[ ! ! e -.. . . $ . . . $ . . . $ . . . $ . . . $ . t ! ! q.. . $ . . + $ Y.6 ! 6.. . . $ . . . $ . . . $ . . ",
". $ . . N $ . c }.! ! b.@.$ . + . $ . . . $ . . . $ . . . $ . . . $ . Z.! `.r . . $ . . . $ .  +! ! { . . $ . . . $ . . . $ . . ",
". . . N . . .+z ! ! F.m . . . . . . . . . . . . . . . . . . . . . . . ++! @+e.. . . . . . . . H ~.! #+z.. . . . . . . . . . . . ",
". $ . . . F.! ! V J.. . . $ . . . $ . . . $ . . . $ . . . $ . . . $ . l.! 8 . $ . $ . . . $ . . 9 ! ! & . $ . . . $ . . . $ . . ",
". $ . . $+! ! 7.%+$ . . . $ . . . $ . . . $ . . . $ . . . $ . . N $ Q.&+! , . @ . $ . . . $ . . O V ! *+. $ . . . $ . . . $ . . ",
"N $ . =+! ! -+@.. $ . . . $ . . . $ . . . $ . . . $ . . . $ . . N $ _ 6 ! d.. + . $ . . . $ . . . %.! V N.$ . . . $ . . . $ . . ",
". z.Y ! ! ;+>+. . . . . . . . . . . . . . . . . . . . . . . . . . . . ^ V.,+. . . . . . . . . . . > W.! 1.. . . . . . . . . . . ",
". '+! ! Q % . . . $ . . . $ . . . $ . . . N $ $ N N . . . $ . . . $ . . N N $ $ N N . . . $ . . . $ I.! -+@ . . . $ . . . $ . . ",
": f ! D % $ . . . $ . . . $ . . . $ . . . $ . . . $ . . . $ . . . $ . . . $ . . . $ . . . $ . . G $ +.! W.{ . + . $ . . . $ . . ",
". @.-.t.N $ . . . $ . . R.)+*.. . $ . 5.A.!+'+].~+T O . . $ . . . $ . X.^ G.{+]+^+i.'.. . $ . . N $ C H.! '+. + . $ . . . $ . . ",
". . . . . @ F p >.g ]+7 6 ! 8 . . ` x /+! ! ! ! ! ! | %.(+. . . % p.b.) ! ! ! ! ! ! m.w.. . . . . . . _+! i t.. . . . . . . . . ",
". $ . . . i.! ! ! ! ! ! ! ! F.X.Y ! ! V :+@+<+5 ! ! ! ! 8 $ . r.[+! ! H.T.- M ! ! ! ! !  +$ . . . $ . {.! ! U . . $ . . . $ . . ",
". $ . . . ( J [+! ! ! ! ! W.~ 5 ! D d.)+: $ }+_.H.! W.! ! |+G.! ! 1+2+C . $ n. +! ! 5 ! /+r . . . $ . C.} ! j.. . $ . . . $ . . ",
". $ . . . $ . q ,.! ! 5 ) ! ! g.3+z.. . . $ . . * ! ) 5 ! ! ! 2 4 $ . . . $ . . :.! ! ! ! ).. $ . $ . . a.! 4+: . $ . . . $ . . ",
". . . . . + + . % 5+! ! ! ! 4.N . . D.@ $ . + . ( j ! 5 ! m.J.. . . G + . . . . 6+! ! ! ! w.. N . . . . ^+! 6 7+. . . . . . . . ",
". $ . . . $ . . + =.! ! ! 8+. . . $ . . . $ . . 8.6 ! z ! 9+. . . $ . . . $ . . v ! ! ! 5 f.. $ . $ . . < ! ! & . $ . . . $ . . ",
". $ . . . $ . . _ H.! ! ! 0+. . . $ . . . $ . . u ! ! | ! {.. . . $ . . . $ . . 1.! ! ! $.{ . . . $ . . Y.| ! a+. $ . . . $ . . ",
". $ . . . $ . . b+$.! ! ! c+. . . $ . . . $ . . P ! z ! } >.. . . $ . . . $ . . d+! ! ! Z P.. . . $ . . t.l.! J . $ . . . $ . . ",
". . . . . . N . 4.! ! ! ! 8.. . . . . . . . . . '+! | ! c.@.. . . . . . . . . + =.! ! ! [+. . . . . . . + =+! -+$ . . . . . . . ",
". $ . . . $ $ . y.! ! ! j 7+. . . $ . . . $ . e.;+! W.! D : . . . $ . . . $ . e+| ! ! ! f+$ . . . $ . . . g+! ..% $ . . . $ . . ",
". $ . . . $ . . D ! ) ! b.'.. . . $ . . . $ . 7+1 ! ) ! J $ N . . $ . . . $ . t ! ! ! ! w $ . . . $ . . . _.! z a $ . . . $ . . ",
". $ . . . + . C.k ! W.! = D.. . . $ . . . $ .  .! ! ! ! w.$ + . . $ . . . $ . P ! ! ! ! u $ . . . $ . . . { ! ! S.$ . . . $ . . ",
". . . . . @ . > `.! | ! !+. . . . . . . . . . 2+! ! ! } h+. + . . . . . . . . L ! ! ! ! P.. . . . . . . . s...! v . . . . . . . ",
". $ . . . G . ^ ! 5 ) ! u.$ . . . $ . . . $ . G.! ! ! }.)+$ $ . . $ . . . $ . b.! ! ! }.(+$ . . . $ . . . &.5+! x.$ . . . $ . . ",
". $ . . . G . o ! z ! 6 E.$ . . . $ . . . $ N ^.! ! ! i+z.$ . . . $ . . . $ R.c.! ! ! I.+ $ . . . $ . . . N.S ! F.$ . . . $ . . ",
". $ . . . $ $ 1+! | ! :+9.$ . . . $ . . . $ : M ! ! ! ;+. $ . . . $ . . N $ 3 `.! ! ! F.. $ . . . $ . . . >+a.! j+$ . . . $ . . ",
". . . . . . K.b.! | ! ^.@ . . . . . . . . . C.5 ! ! ! ~+. . . . . . . . N . k+W.! ! ! v . . . . . . . . . e.' ! = . . . . . . . ",
". $ . . . $ l+m.! 5 ! ~+. @ . . . $ . . . $ S.! ! ! ! X . $ . . . $ . . @ $ G.! ! ! ! c . $ . . . $ . . . % 8+! M.$ . . . $ . . ",
". $ . . . $ >.! 5 ! ! T . G . . . $ . . . $ ] ! ! ! 5 4 . $ . . . $ . . + $ =+! 5 ! m+(.. $ . . . $ . . . # #.! x $ . . . $ . . ",
". $ . . . $ T ! ) ! ..b+. + . . . $ . . . $ x ! ! ! V # . $ . . . $ . . . $ f+! ) ! y X.. $ . . . $ . . . l g.! k.$ . . . $ . . ",
". . . . . + A ! ) ! o.P.. N . . . . . . . . l.! ! ! i N . . . . . . . . $ . 2 ! 5 ! ! > . . . . a m . . . e+:+! n+. . . . . . . ",
". $ . . . q ' ! 5 ! g.. . $ . . . $ . . . F 7.! ! ! L . . $ . . . $ . . + $ Z.! ! ! ! ' o+l C y.5 ` . . . X.c.! p+$ . . . $ . . ",
". $ . . . C.j ! ! ! Y . . $ . . . $ . . . L.V ! ! ! 4.. . $ . . . $ . . . $ K.c.! ! ! ! q+[.! ! 2 H . . . s 6 ! +.$ . . . $ . . ",
". $ . . . r+! ! ! ! 9 . . $ . . . $ . $ . ] ! ! ! ! 3+. . $ . . . $ . . . $ . s+2.! ! ! ! ! [+_.. $ . . . s+! ! r.$ . . . $ . . ",
". . . . . '.0.c c c K.. . . . . . . . . . *.& c s+0.,+. . . . . . . . . . . . . C !+U._+9+>.l . . + . . . % j+v.(+. . . . . . . ",
". $ . . . $ . . . $ . . . $ . . . $ . . . $ . . . $ . . . $ . . . $ . . . $ . . . $ . . . $ . . . $ . . . $ . . . $ . . . $ . . ",
". $ . . . $ . . . $ . . . $ . . . $ . . . $ . . . $ . . . $ . . . $ . . . $ . . . $ . . . $ . . . $ . . . $ . . . $ . . . $ . . ",
". $ . . . $ . . . $ . . . $ . . . $ . . . $ . . . $ . . . $ . . . $ . . . $ . . . $ . . . $ . . . $ . . . $ . . . $ . . . $ . . "};
