/* XPM */
static char * Icon_xpm[] = {
"16 16 49 1",
" 	c None",
".	c #E3DFDF",
"+	c #716F6F",
"@	c #0B0B0B",
"#	c #0D0D0D",
"$	c #7B7979",
"%	c #B5B2B2",
"&	c #000000",
"*	c #A29F9F",
"=	c #7F7D7D",
"-	c #010101",
";	c #D8D4D4",
">	c #817F7F",
",	c #202020",
"'	c #DFDBDB",
")	c #A7A4A4",
"!	c #9A9898",
"~	c #DCD8D8",
"{	c #CDCACA",
"]	c #D9D5D5",
"^	c #706E6E",
"/	c #DBD8D8",
"(	c #B7B4B4",
"_	c #040404",
":	c #DAD6D6",
"<	c #E2DEDE",
"[	c #646262",
"}	c #080707",
"|	c #111111",
"1	c #888585",
"2	c #9B9999",
"3	c #212121",
"4	c #020202",
"5	c #0A0A0A",
"6	c #373636",
"7	c #656363",
"8	c #1C1B1B",
"9	c #030303",
"0	c #0C0C0C",
"a	c #525151",
"b	c #101010",
"c	c #1D1C1C",
"d	c #807D7D",
"e	c #838181",
"f	c #201F1F",
"g	c #4A4949",
"h	c #918E8E",
"i	c #626161",
"j	c #C6C3C3",
"................",
"...........+@#$.",
"..........%&*=-;",
".............>,'",
"............)&!.",
"..........~{]^@/",
"..........(&!+_:",
"..........<[}|1.",
"................",
".234567890a~....",
".bcdef&71g&h....",
".&i..i&..j&=....",
".&i..i&..j&=....",
".&i..i&..j&=....",
".&i..i&..j&=....",
"................"};
