/* XPM */
static char * M2_small_xpm[] = {
"16 16 142 2",
"  	c None",
". 	c #C3C3C3",
"+ 	c #B9B9BA",
"@ 	c #646A90",
"# 	c #292F6A",
"$ 	c #242D76",
"% 	c #868C9E",
"& 	c #363F62",
"* 	c #7C7C7C",
"= 	c #4A5C8C",
"- 	c #223461",
"; 	c #B9B9B9",
"> 	c #B2B4B6",
", 	c #336EAB",
"' 	c #2E3D52",
") 	c #A2AEB4",
"! 	c #287CAD",
"~ 	c #1F4A69",
"{ 	c #9B9B9B",
"] 	c #A8AAB0",
"^ 	c #979CA7",
"/ 	c #C2C2C2",
"( 	c #6C9BAB",
"_ 	c #A6B2B5",
": 	c #B6B6B7",
"< 	c #1387B4",
"[ 	c #334A54",
"} 	c #AEAEAE",
"| 	c #434E8E",
"1 	c #2F4897",
"2 	c #889EA8",
"3 	c #0CA8E6",
"4 	c #358EAE",
"5 	c #BEBEBE",
"6 	c #76A3B0",
"7 	c #0A7596",
"8 	c #6B838A",
"9 	c #899FA6",
"0 	c #B7B8B8",
"a 	c #AAAAAD",
"b 	c #303492",
"c 	c #303FA1",
"d 	c #777A83",
"e 	c #688FA9",
"f 	c #1296DB",
"g 	c #0D84B7",
"h 	c #A7A7A7",
"i 	c #8FAAB2",
"j 	c #1493B5",
"k 	c #1A8BA9",
"l 	c #2086A1",
"m 	c #57767F",
"n 	c #898C9E",
"o 	c #32379C",
"p 	c #32369B",
"q 	c #484B6C",
"r 	c #386EA3",
"s 	c #1881CB",
"t 	c #128CCD",
"u 	c #898D8E",
"v 	c #C0C0C0",
"w 	c #BFBFBF",
"x 	c #65739A",
"y 	c #2B3E98",
"z 	c #2A2D7B",
"A 	c #33346D",
"B 	c #BDBDBD",
"C 	c #B6B6B6",
"D 	c #2555A3",
"E 	c #184A7F",
"F 	c #1982CE",
"G 	c #67757E",
"H 	c #40669C",
"I 	c #23438A",
"J 	c #303970",
"K 	c #2A307B",
"L 	c #B0B0B0",
"M 	c #888C9E",
"N 	c #2C4AA8",
"O 	c #293751",
"P 	c #1E66B2",
"Q 	c #45637C",
"R 	c #B9BABA",
"S 	c #206BAE",
"T 	c #204777",
"U 	c #70778E",
"V 	c #2B3F98",
"W 	c #8F9092",
"X 	c #58598E",
"Y 	c #2C3892",
"Z 	c #707070",
"` 	c #2A559C",
" .	c #2A4E7A",
"..	c #7B9AAA",
"+.	c #168AD3",
"@.	c #3B5163",
"#.	c #9D9FA2",
"$.	c #2952AE",
"%.	c #444B64",
"&.	c #313893",
"*.	c #2A2B66",
"=.	c #AFAFAF",
"-.	c #3C5292",
";.	c #224385",
">.	c #B2B2B2",
",.	c #4E98B5",
"'.	c #0F8DC8",
").	c #7A7C7D",
"!.	c #22569F",
"~.	c #234895",
"{.	c #2E44A4",
"].	c #494B5A",
"^.	c #586192",
"/.	c #283F92",
"(.	c #979797",
"_.	c #259CC3",
":.	c #0C85B2",
"<.	c #A0A0A0",
"[.	c #3E74A5",
"}.	c #2365BA",
"|.	c #234793",
"1.	c #8F8F8F",
"2.	c #80829A",
"3.	c #303C9F",
"4.	c #707381",
"5.	c #04A2D0",
"6.	c #0E7A9B",
"7.	c #B1B1B1",
"8.	c #8499A8",
"9.	c #1C78C5",
"0.	c #224570",
"a.	c #B3B3B3",
"b.	c #A5A5AA",
"c.	c #313394",
"d.	c #40436E",
"e.	c #7D9CA4",
"f.	c #6A7072",
"g.	c #8A9297",
"h.	c #9D9D9E",
"i.	c #7B7C94",
"j.	c #30314A",
"k.	c #BABABA",
". . . . . . . . . . . + @ # $   ",
". . . . . . . . . . . % & * = - ",
". . . . . . . . . . . . ; > , ' ",
". . . . . . . . . . . . ) ! ~ { ",
". . ] ^ . . . / ( _ . : < [ } . ",
". . | 1 } . . 2 3 4 5 6 7 8 9 0 ",
". a b c d . . e f g h i j k l m ",
". n o p q . . r s t u . 5 v . w ",
". x y z A B C D E F G . . . . . ",
". H I J K L M N O P Q . . . . . ",
"R S T U V W X Y Z `  .v . . . . ",
"..+.@.#.$.%.&.*.=.-.;.>.. . . . ",
",.'.).w !.~.{.].. ^./.(.. . . . ",
"_.:.<.. [.}.|.1.. 2.3.4.. . . . ",
"5.6.7.. 8.9.0.a.. b.c.d.. . . . ",
"e.f.v . / g.h.. . / i.j.k.. . . "};
