/* XPM */
static char * Rotate_v3_xpm[] = {
"32 32 30 1",
" 	c None",
".	c #E3DFDF",
"+	c #C9CBC5",
"@	c #97A494",
"#	c #60795D",
"$	c #345732",
"%	c #1C441B",
"&	c #DDDAD9",
"*	c #164015",
"=	c #A5AFA2",
"-	c #D7D6D3",
";	c #174316",
">	c #296427",
",	c #429440",
"'	c #6AE168",
")	c #388237",
"!	c #225821",
"~	c #184517",
"{	c #377F35",
"]	c #4FAD4D",
"^	c #327631",
"/	c #52B450",
"(	c #194618",
"_	c #5BC559",
":	c #469D45",
"<	c #2D6C2C",
"[	c #378136",
"}	c #317530",
"|	c #3B883A",
"1	c #64D562",
"...........+@#$%%$#@+...........",
"........&@%**********%@&........",
".......=****************=.......",
".....&#******************#&.....",
"....-$*****;>,'''',>;*****$-....",
"...&$****;)'''''''''');****$&...",
"...#****!''''''''''''''!****#...",
"..=****>''''''''''''''''>****=..",
".&****!''''''''''''''''''!****&.",
".@***;'''''''''''**''''''';***@.",
".%***)''''''''''**'''''''')***%.",
"+***;''''''''''~~'{]''''''';***+",
"@***>'''''^**'*******^'''''>***@",
"#***,'''/**('''**_:<(**/''',***#",
"$***''''**['''''**'''[**''''***$",
"%***'''}*|'''''''**'''|*}'''***%",
"%***'''(*1''''''''''''1*('''***%",
"$***'''}*|'''**'''''''|*}'''***$",
"#***,'''**['''**'''''[**''',***#",
"@***>'''/**(<:_**''<(**/'''>***@",
"+***;'''''^*******'**^''''';***+",
".%***)'''''']{'~~''''''''')***%.",
".@***;''''''''**'''''''''';***@.",
".&****!''''''**''''''''''!****&.",
"..=****>''''''''''''''''>****=..",
"...#****!''''''''''''''!****#...",
"...&$****;)'''''''''');****$&...",
"....-$*****;>,'''',>;*****$-....",
".....&#******************#&.....",
".......=****************=.......",
"........&@%**********%@&........",
"...........+@#$%%$#@+..........."};
