/* XPM */
static char * RevanExit_xpm[] = {
"33 33 122 2",
"  	c None",
". 	c #BDBDBD",
"+ 	c #CECECE",
"@ 	c #F9F9F9",
"# 	c #FFFFFF",
"$ 	c #EFEFEF",
"% 	c #E0E0E0",
"& 	c #DADADA",
"* 	c #D8D8D8",
"= 	c #D6D6D6",
"- 	c #D4D4D4",
"; 	c #CDCDCD",
"> 	c #BABABA",
", 	c #B4B4B4",
"' 	c #BCBCBC",
") 	c #D9D9D9",
"! 	c #F1F1F1",
"~ 	c #EEEEEE",
"{ 	c #E4E4E4",
"] 	c #DDDDDD",
"^ 	c #D1D1D1",
"/ 	c #C8C8C8",
"( 	c #B8B8B8",
"_ 	c #B1B1B1",
": 	c #AAAAAA",
"< 	c #F4F4F4",
"[ 	c #FAFAFA",
"} 	c #D3D3D3",
"| 	c #C2C2C2",
"1 	c #BEBEBE",
"2 	c #C0C0C0",
"3 	c #B9B9B9",
"4 	c #A7A7A7",
"5 	c #989898",
"6 	c #A8A8A8",
"7 	c #FDFDFD",
"8 	c #BBBBBB",
"9 	c #ABABAB",
"0 	c #A4A4A4",
"a 	c #9B9B9B",
"b 	c #858585",
"c 	c #A2A2A2",
"d 	c #9A9A9A",
"e 	c #7B7B7B",
"f 	c #959595",
"g 	c #A0A0A0",
"h 	c #717171",
"i 	c #636363",
"j 	c #939393",
"k 	c #C1C1C1",
"l 	c #565656",
"m 	c #606060",
"n 	c #868686",
"o 	c #353535",
"p 	c #6A6A6A",
"q 	c #575757",
"r 	c #2D2D2D",
"s 	c #909090",
"t 	c #000000",
"u 	c #1D1D1D",
"v 	c #4B4B4B",
"w 	c #8C8C8C",
"x 	c #525252",
"y 	c #0D0D0D",
"z 	c #969696",
"A 	c #1F1F1F",
"B 	c #4A4A4A",
"C 	c #3F3F3F",
"D 	c #080808",
"E 	c #0B0B0B",
"F 	c #595959",
"G 	c #2E2E2E",
"H 	c #030303",
"I 	c #454545",
"J 	c #D2D2D2",
"K 	c #363636",
"L 	c #1C1C1C",
"M 	c #7F7F7F",
"N 	c #666666",
"O 	c #AFAFAF",
"P 	c #878787",
"Q 	c #535353",
"R 	c #F5F5F5",
"S 	c #6B6B6B",
"T 	c #121212",
"U 	c #656565",
"V 	c #7A7A7A",
"W 	c #555555",
"X 	c #5B5B5B",
"Y 	c #FBFBFB",
"Z 	c #E3E3E3",
"` 	c #070707",
" .	c #232323",
"..	c #161616",
"+.	c #8F8F8F",
"@.	c #3B3B3B",
"#.	c #191919",
"$.	c #E6E6E6",
"%.	c #E7E7E7",
"&.	c #DEDEDE",
"*.	c #434343",
"=.	c #B6B6B6",
"-.	c #818181",
";.	c #5C5C5C",
">.	c #B7B7B7",
",.	c #A3A3A3",
"'.	c #020202",
").	c #838383",
"!.	c #AEAEAE",
"~.	c #222222",
"{.	c #686868",
"].	c #BFBFBF",
"^.	c #9D9D9D",
"/.	c #ACACAC",
"(.	c #FCFCFC",
"_.	c #F7F7F7",
":.	c #5D5D5D",
"<.	c #C9C9C9",
"[.	c #343434",
"}.	c #181818",
"|.	c #2F2F2F",
"1.	c #212121",
". . . . . . . . . . . . . . . . . . . . . . . . . . . . . . . . . ",
". . . . . . . . . . + @ # $ % & * = - ; > , ' . . . . . . . . . . ",
". . . . . . . . ) # # ! ~ { ] ) * = ^ / > ( _ : > . . . . . . . . ",
". . . . . . . # # @ < [ # ! } | . . 1 2 3 > _ 4 5 6 . . . . . . . ",
". . . . . + # # 7 # # } . . . . . . . . . 8 9 0 a b c ' . . . . . ",
". . . . + # # # # ] . . . . . . . . . . . . . 3 d b e f ' . . . . ",
". . . . # # # # / . . . . . . . . . . . . . . . ' g h i j . . . . ",
". . . # # # # k . . . . . . . . . . . . . . . . . ' d l m 6 . . . ",
". . ) # 7 # / . . . . . . . . . . . . . . . . . . . ' n o p > . . ",
". . # @ # ] . . . . . . . . . . . . . . . . . . . . . 3 q r s . . ",
". + # < # . . . r t t u v j ( . . . w x y t t x d . . . z A B ' . ",
". @ ! [ } . . . C D D E r F d ( . w G t t H I 4 J . . . 8 K L 0 . ",
". # ~ # . . . . M N z O c h e d P G t t Q R # # # . . . . S T U . ",
". $ { ! . . . . ( d e V 9 9 V z W t t X Y # # # Z . . . . c `  .. ",
". % ] } . . . . . ( d e V 9 9 U ..t X Y # # # Z . . . . . ( t ` . ",
". & ) | . . . . . . ( d z U +.M @.#.# # # # Z . . . . . . ' t t . ",
". * * . . . . . . . . P W ..@.. . . $.% %.&.. . . . . . . ' t t . ",
". = = . . . . . . . w G t t *.# $.c =.-.;.d ( . . . . . . >.t t . ",
". - ^ 1 . . . . . w G t t X Y # % -.9 9 V e d ( . . . . . ,.t t . ",
". ; / 2 . . . . w G t t X Y # # %.;.V 9 9 V e d ( . . . . h t '.. ",
". > > 3 . . . . #.t t S 7 # # # &.d e ).!.O X -.c . . . . ~.t u . ",
". , ( > 8 . . . U {.].% @ # # Z . ( d ^./.* (.# _.. . . ,.t t :.. ",
". ' _ _ 9 . . . d : * ~ 7 (.Z . . . ( 8 ].<.* # # . . . C t t : . ",
". . : 4 0 3 . . . . . . . . . . . . . . . . . . . . . f t t [.. . ",
". . > 5 a d ' . . . . . . . . . . . . . . . . . . . _ }.t t a . . ",
". . . 6 b b g ' . . . . . . . . . . . . . . . . . >.o t t x . . . ",
". . . . c e h d ' . . . . . . . . . . . . . . . _ o t t |.. . . . ",
". . . . ' f i l n 3 . . . . . . . . . . . . . f }.t t 1.: . . . . ",
". . . . . ' j m o q z 8 . . . . . . . . . ,.C t t t |.: . . . . . ",
". . . . . . . 6 p r A K S c ( ' ' >.,.h ~.t t t t x . . . . . . . ",
". . . . . . . . > s B L T ` t t t t t t t t t [.a . . . . . . . . ",
". . . . . . . . . . ' 0 U  .` t t t t '.u :.: . . . . . . . . . . ",
". . . . . . . . . . . . . . . . . . . . . . . . . . . . . . . . . "};
