/* XPM */
static char * EviewLoop_xpm[] = {
"32 32 18 1",
" 	c None",
".	c #C0C0C0",
"+	c #829682",
"@	c #5F7E5F",
"#	c #4F724F",
"$	c #496D49",
"%	c #476B47",
"&	c #B4B8B4",
"*	c #678367",
"=	c #799079",
"-	c #6EB36E",
";	c #80DD80",
">	c #81E481",
",	c #80E580",
"'	c #76C276",
")	c #597959",
"!	c #82E182",
"~	c #568556",
"................................",
"...........+@#$%%$#@+...........",
"........&*$%%%%%%%%%%$*&........",
".......=$%%-;>,,,,>;-%%$=.......",
"......@%%'>,,,,,,,,,,>'%%@......",
".....)%%!,,,,,,,,,,,,,,!%%).....",
"....@%~>,,,,,,,,,,,,,,,,>~%@....",
"...=%%>,,,,,,,,,,,,,,,,,,>%%=...",
"..&$%!,,,,,,%,,,,,,,,,,,,,!%$&..",
"..*%',,,,,,,%%%,,,,,,,,,,,,'%*..",
"..$%>,,,,,,,%%%%,,,,,,,,,,,>%$..",
".+%-,,,,,,,,%%%%%%,,,,,,,,,,-%+.",
".@%;,,,,,,,,%%%%%%%,,,,,,,,,;%@.",
".#%>,,,,,,,,%%%%%%%%%,,,,,,,>%#.",
".$%,,,,,,,,,%%%%%%%%%%,,,,,,,%$.",
".%%,,,,,,,,,%%%%%%%%%%%%,,,,,%%.",
".%%,,,,,,,,,%%%%%%%%%%%%,,,,,%%.",
".$%,,,,,,,,,%%%%%%%%%%,,,,,,,%$.",
".#%>,,,,,,,,%%%%%%%%%,,,,,,,>%#.",
".@%;,,,,,,,,%%%%%%%,,,,,,,,,;%@.",
".+%-,,,,,,,,%%%%%%,,,,,,,,,,-%+.",
"..$%>,,,,,,,%%%%,,,,,,,,,,,>%$..",
"..*%',,,,,,,%%%,,,,,,,,,,,,'%*..",
"..&$%!,,,,,,%,,,,,,,,,,,,,!%$&..",
"...=%%>,,,,,,,,,,,,,,,,,,>%%=...",
"....@%~>,,,,,,,,,,,,,,,,>~%@....",
".....)%%!,,,,,,,,,,,,,,!%%).....",
"......@%%'>,,,,,,,,,,>'%%@......",
".......=$%%-;>,,,,>;-%%$=.......",
"........&*$%%%%%%%%%%$*&........",
"...........+@#$%%$#@+...........",
"................................"};
