/* XPM */
static char * EviewRotate_xpm[] = {
"32 32 35 1",
" 	c None",
".	c #C0C0C0",
"+	c #829682",
"@	c #5F7E5F",
"#	c #4F724F",
"$	c #496D49",
"%	c #476B47",
"&	c #B4B8B4",
"*	c #678367",
"=	c #799079",
"-	c #6EB36E",
";	c #80DD80",
">	c #81E481",
",	c #80E580",
"'	c #76C276",
")	c #597959",
"!	c #82E182",
"~	c #568556",
"{	c #73C973",
"]	c #62A662",
"^	c #476C47",
"/	c #568C56",
"(	c #62A562",
"_	c #6FC26F",
":	c #528152",
"<	c #66AD66",
"[	c #74CB74",
"}	c #7CDC7C",
"|	c #7FE37F",
"1	c #70C470",
"2	c #5F9E5F",
"3	c #528352",
"4	c #6AB66A",
"5	c #4E7A4E",
"6	c #497049",
"................................",
"...........+@#$%%$#@+...........",
"........&*$%%%%%%%%%%$*&........",
".......=$%%-;>,,,,>;-%%$=.......",
"......@%%'>,,,,,,,,,,>'%%@......",
".....)%%!,,,,,,,,,,,,,,!%%).....",
"....@%~>,,,,,,,,,,,,,,,,>~%@....",
"...=%%>,,,,,,,,,,,,,%,,,,>%%=...",
"..&$%!,,,,,,,,,,,,,%%,,,,,!%$&..",
"..*%',,,,,,,,,,,,,%%,,,,,,,'%*..",
"..$%>,,,,,,,,,,,,%%,,,,,,,,>%$..",
".+%-,,,,,,{],,,,^%%/]{,,,,,,-%+.",
".@%;,,,,(%%%%,,,%%%%%%%(,,,,;%@.",
".#%>,,_%%%:<[}|,,%%[<:%%%_,,>%#.",
".$%,,1%%2,,,,,,,,,%%,,,2%%1,,%$.",
".%%,,3%4,,,,,,,,,,,%%,,,4%3,,%%.",
".%%,,%%,,,,%,,,,,,,,%,,,,%%,,%%.",
".$%,,3%4,,,%%,,,,,,,,,,,4%3,,%$.",
".#%>,1%%2,,,%%,,,,,,,,,2%%1,>%#.",
".@%;,,_%%%:<[%%,,|,,<:%%%_,,;%@.",
".+%-,,,,(%%%%%%%,,,%%%%(,,,,-%+.",
"..$%>,,,,,{]/56%,,,,]{,,,,,>%$..",
"..*%',,,,,,,,%%,,,,,,,,,,,,'%*..",
"..&$%!,,,,,,%%,,,,,,,,,,,,!%$&..",
"...=%%>,,,,%%,,,,,,,,,,,,>%%=...",
"....@%~>,,,%,,,,,,,,,,,,>~%@....",
".....)%%!,,,,,,,,,,,,,,!%%).....",
"......@%%'>,,,,,,,,,,>'%%@......",
".......=$%%-;>,,,,>;-%%$=.......",
"........&*$%%%%%%%%%%$*&........",
"...........+@#$%%$#@+...........",
"................................"};
